<?xml version="1.0" encoding="UTF-8"?><svg id="Layer_1" xmlns="http://www.w3.org/2000/svg" viewBox="0 0 1024 925.74"><defs><style>.cls-1{fill:#231f20;}</style></defs><g><path class="cls-1" d="M301.95,0V128.22H170.23V640.22h131.72v127.78H0V0H301.95Z"/><path class="cls-1" d="M323.83,768L540.01,0h160.16l-216.18,768h-160.16Z"/><path class="cls-1" d="M1024,0V768h-301.95v-127.78h131.72V128.22h-131.72V0h301.95Z"/></g><g><path class="cls-1" d="M34.93,873.41c0,5.34,.64,9.83,1.91,13.47,1.27,3.65,3.11,6.41,5.52,8.29,2.41,1.88,5.32,2.82,8.73,2.82s6.17-.83,8.45-2.49c2.28-1.66,3.98-3.91,5.12-6.74,1.14-2.83,1.71-6.01,1.71-9.55h32.25v4.98c0,8.38-2.04,15.69-6.13,21.92-4.09,6.23-9.74,11.06-16.94,14.49-7.2,3.43-15.46,5.14-24.78,5.14-10.94,0-20.19-2.18-27.74-6.53-7.56-4.35-13.28-10.46-17.18-18.33-3.9-7.86-5.85-17.1-5.85-27.72v-10.04c0-10.67,1.95-19.92,5.85-27.76,3.9-7.84,9.63-13.92,17.18-18.25,7.56-4.33,16.8-6.49,27.74-6.49,6.99,0,13.4,.97,19.25,2.9,5.85,1.93,10.9,4.72,15.15,8.37,4.25,3.65,7.56,8.03,9.91,13.14,2.36,5.12,3.53,10.86,3.53,17.23v4.82h-32.25c0-3.54-.57-6.72-1.71-9.55-1.14-2.83-2.84-5.06-5.12-6.69-2.27-1.63-5.09-2.45-8.45-2.45s-6.32,.94-8.73,2.82c-2.41,1.88-4.25,4.64-5.52,8.29-1.27,3.65-1.91,8.16-1.91,13.55v10.37Z"/><path class="cls-1" d="M210.65,901.13c-4.01,7.81-9.9,13.87-17.67,18.17-7.77,4.3-17.32,6.45-28.64,6.45s-20.8-2.15-28.6-6.45c-7.8-4.3-13.72-10.35-17.75-18.17-4.04-7.81-6.05-16.91-6.05-27.31v-10.94c0-10.56,2.02-19.76,6.05-27.6,4.03-7.84,9.95-13.91,17.75-18.21,7.8-4.3,17.33-6.45,28.6-6.45s20.86,2.18,28.64,6.53c7.77,4.35,13.66,10.44,17.67,18.25,4.01,7.81,6.01,16.97,6.01,27.47v10.94c0,10.4-2,19.5-6.01,27.31Zm-31.03-52.21c-1.41-3.65-3.4-6.41-5.97-8.29-2.57-1.88-5.67-2.82-9.3-2.82s-6.74,.94-9.34,2.82c-2.6,1.88-4.6,4.64-6.01,8.29-1.41,3.65-2.11,8.14-2.11,13.47v11.59c0,5.34,.7,9.84,2.11,13.51,1.41,3.67,3.41,6.44,6.01,8.29,2.6,1.85,5.71,2.78,9.34,2.78s6.73-.92,9.3-2.78c2.57-1.85,4.56-4.61,5.97-8.29,1.41-3.67,2.11-8.18,2.11-13.51v-11.59c0-5.33-.7-9.82-2.11-13.47Z"/><path class="cls-1" d="M283.03,812.43c12.02,0,21.77,2.29,29.25,6.86,7.47,4.57,12.96,10.98,16.45,19.23,3.49,8.25,5.24,17.89,5.24,28.94s-1.79,21.06-5.36,29.55c-3.57,8.49-9.11,15.09-16.61,19.8-7.5,4.71-17.16,7.06-28.96,7.06h-48.17v-111.44h48.17Zm-14.05,85.07h7.8c4.06,0,7.51-.6,10.36-1.8,2.84-1.2,5.13-3.01,6.86-5.43,1.73-2.42,3.01-5.46,3.82-9.1,.81-3.65,1.22-7.89,1.22-12.74,0-6.48-.73-11.92-2.19-16.33s-3.82-7.73-7.07-9.96-7.58-3.35-13-3.35h-7.8v58.7Z"/><path class="cls-1" d="M430.56,923.87h-79.04v-111.44h79.04v26.37h-45.33v17.55h42.33v23.84h-42.33v17.31h45.33v26.37Z"/><path class="cls-1" d="M448.03,892.84v-29.39h51.18v29.39h-51.18Z"/><path class="cls-1" d="M519.11,923.87v-111.44h35.66l23.72,49.72h1.14l23.8-49.72h35.34v111.44h-30.63v-62.13h-1.54l-18.85,40.98h-17.87l-19.01-40.98h-1.62v62.13h-30.14Z"/><path class="cls-1" d="M740.56,923.87h-79.04v-111.44h79.04v26.37h-45.33v17.55h42.32v23.84h-42.32v17.31h45.33v26.37Z"/><path class="cls-1" d="M763.19,895.09c3.6-3.07,8-4.61,13.2-4.61s9.6,1.58,13.2,4.73c3.6,3.16,5.4,7.48,5.4,12.98s-1.81,9.93-5.44,12.98c-3.63,3.05-8.01,4.57-13.16,4.57s-9.53-1.52-13.16-4.57c-3.63-3.05-5.44-7.38-5.44-12.98s1.8-10.03,5.4-13.1Z"/><path class="cls-1" d="M889.8,817.2c6.5,3.18,11.4,7.66,14.7,13.43,3.3,5.77,4.95,12.49,4.95,20.17,0,6.15-1.18,11.4-3.53,15.76-2.36,4.35-5.06,7.84-8.12,10.45-3.06,2.61-5.65,4.41-7.76,5.39l21.77,41.47h-37.45l-17.79-37.15h-8.53v37.15h-33.39v-111.44h50.85c9.69,0,17.79,1.59,24.29,4.78Zm-29.49,46.66c3.74,0,7-1.07,9.79-3.22,2.79-2.15,4.19-5.48,4.19-10s-1.43-7.99-4.3-10.25c-2.87-2.26-6.09-3.39-9.67-3.39h-12.27v26.86h12.27Z"/><path class="cls-1" d="M985.62,893.62c2.84-2.7,4.26-7.06,4.26-13.1v-68.09h34.12v72.91c0,8.16-1.98,15.28-5.93,21.35-3.96,6.07-9.6,10.76-16.94,14.08-7.34,3.32-16.07,4.98-26.2,4.98s-18.86-1.66-26.2-4.98c-7.34-3.32-12.98-8.01-16.94-14.08-3.95-6.07-5.93-13.18-5.93-21.35v-72.91h34.12v68.09c0,6.15,1.42,10.54,4.26,13.18s6.4,3.96,10.68,3.96,7.84-1.35,10.68-4.04Z"/></g></svg>