<?xml version="1.0" encoding="UTF-8"?><svg id="Layer_7" xmlns="http://www.w3.org/2000/svg" viewBox="0 0 512 512"><defs><style>.cls-1{fill:#010101;}.cls-2{fill:#445aa8;}.cls-3{fill:#4466b0;}.cls-4{fill:#4465af;}</style></defs><path class="cls-1" d="M281.23,.04c-.39,5.72-.09,11.46-.17,17.18-.04,2.85,0,2.85-2.85,2.85-9.14,0-18.28,.06-27.42-.05-1.75-.02-1.68,.78-1.72,2.01-.04,1.33,.09,2.01,1.77,1.99,9.41-.09,18.81-.01,28.22-.08,1.5,0,2.04,.28,2.03,1.93-.07,14.08-.07,28.16,0,42.24,0,1.6-.45,1.98-2.01,1.98-17.08-.06-34.16-.05-51.24,0-1.45,0-1.94-.29-1.92-1.85,.1-5.87,.09-11.74,0-17.61-.02-1.46,.46-1.74,1.81-1.73,9.47,.06,18.95-.01,28.42,.07,1.55,.01,1.88-.45,1.84-1.9-.04-1.4-.15-2.1-1.9-2.08-9.41,.1-18.82,0-28.22,.09-1.61,.01-1.96-.46-1.95-1.99,.06-14.35,.03-28.69,.03-43.04h55.27Z"/><path class="cls-1" d="M346.92,.04c.01,6.14-.02,12.28,.06,18.42,.02,1.34-.4,1.65-1.68,1.64-9.48-.05-18.96,.02-28.43-.07-1.66-.02-1.91,.54-1.95,2.02-.05,1.64,.5,1.97,2.03,1.96,9.34-.07,18.69,0,28.03-.06,1.46,0,2.02,.24,2.02,1.9-.08,14.08-.07,28.17,0,42.25,0,1.56-.37,2-1.97,1.99-17.09-.06-34.17-.06-51.26,0-1.53,0-1.9-.41-1.87-1.9,.09-5.81,.09-11.62,0-17.42-.02-1.48,.33-1.9,1.86-1.89,9.34,.08,18.69,0,28.03,.08,1.59,.01,2.12-.27,2.14-2.01,.02-1.89-.8-1.96-2.26-1.95-9.34,.05-18.69,0-28.03,.05-1.18,0-1.75-.13-1.74-1.57,.06-14.15,.04-28.3,.04-42.45,0-.33,.08-.66,.12-.98,18.29,0,36.58,0,54.87,0Z"/><path class="cls-1" d="M215.15,.04c-.01,7.07-.07,14.14,0,21.21,.02,1.53-.41,1.89-1.89,1.88-9.4-.07-18.81,0-28.21-.07-1.59-.01-1.98,.43-1.96,1.99,.09,6.27,.09,12.54,0,18.81-.03,1.62,.34,2.13,2.05,2.12,9.34-.09,18.68,0,28.01-.08,1.53-.01,2.03,.34,2.01,1.96-.1,6.47-.08,12.94,0,19.41,.02,1.4-.37,1.77-1.77,1.76-17.21-.05-34.42-.06-51.63,.01-1.65,0-1.78-.63-1.78-1.97,.03-21.61,.03-43.23,.02-64.84,0-.73-.08-1.46-.12-2.19,18.42,0,36.85,0,55.27,0Z"/><path class="cls-4" d="M437.03,100.98c-120.68,0-241.37,0-362.05,0,.65-.9,1.58-.42,2.36-.42,105.96-.02,211.93-.02,317.89-.02,13.28,0,26.56,0,39.84,.03,.64,0,1.47-.46,1.96,.42Z"/><path class="cls-4" d="M142.28,176.35c.67-.86,1.62-.45,2.42-.45,36.18-.02,72.35-.02,108.53-.02q2.77,0,2.77-2.82c0-13.22,0-26.43,0-39.65,0-2.66,.12-2.78,2.86-2.78,47.52,0,95.05,0,142.57,0,2.45,0,2.56,.13,2.37,2.56-.54,6.81-1.05,13.62-1.62,20.42-.64,7.53-1.25,15.06-2.03,22.57-.61,5.93-1.08,11.88-1.59,17.82-.69,8.12-1.6,16.21-2.34,24.33-.48,5.28-.78,10.58-1.25,15.86-.45,5.08-1.07,10.14-1.54,15.22-.34,3.7-.53,7.41-.86,11.11-.48,5.34-1.04,10.68-1.53,16.02-.31,3.3-.56,6.61-.86,9.91-.51,5.67-1.06,11.34-1.55,17.02-.32,3.63-.53,7.28-.86,10.91-.48,5.28-1.03,10.55-1.53,15.82-.31,3.3-.62,6.6-.85,9.91-.4,5.68-.93,11.36-1.55,17.02-.4,3.69-.54,7.41-.88,11.11-.47,5.21-1.04,10.41-1.52,15.62-.33,3.5-.56,7.01-.87,10.51-.5,5.47-1.05,10.94-1.54,16.42-.32,3.63-.54,7.28-.86,10.91-.48,5.41-1.03,10.81-1.52,16.22-.2,2.25-.41,4.5-.44,6.75-.02,1.44-.53,2.21-1.92,2.59-7.49,2.05-14.97,4.15-22.46,6.23-12.41,3.45-24.82,6.9-37.23,10.34-12.16,3.37-24.32,6.72-36.48,10.09-6.66,1.84-13.31,3.67-19.96,5.53-2.14,.6-2.14,.64-2.14-1.7,0-14.89,0-29.77,0-44.66,.09-.39,.34-.65,.69-.83,8.3-2.51,16.69-4.73,25.05-7.05,19.23-5.34,38.46-10.65,57.68-15.98,2.31-.64,4.62-1.31,6.95-1.89,1.27-.32,1.89-1.01,2.03-2.34,.58-5.44,1.02-10.89,1.51-16.33,.75-8.3,1.53-16.6,2.23-24.9,.7-8.37,1.54-16.73,2.22-25.1,.52-6.45,1.19-12.88,1.74-19.33,.72-8.5,1.55-17,2.26-25.5,.66-7.91,1.41-15.81,2.15-23.71,.64-6.77,1.18-13.55,1.81-20.32,.78-8.36,1.5-16.74,2.25-25.1,.73-8.1,1.45-16.21,2.16-24.31,.59-6.64,1.15-13.29,1.79-19.92,.33-3.46,.32-3.58-3.05-3.58-35.77,0-71.54,0-107.31,0-.8,0-1.6,0-2.4-.02-.67,.1-1.33,.06-2,.06-35.87,0-71.74,0-107.61-.01-1.3,0-2.69,.31-3.87-.58Z"/><path class="cls-3" d="M154.66,313.3c33.05,0,66.1-.01,99.15-.02,.73,0,1.46-.03,2.2-.05,.8-.64,1.76-.54,2.69-.54,16.75,0,33.5-.01,50.25,0,3.09,0,3.36,.43,3.08,3.56-.73,8.17-1.4,16.34-2.17,24.5-.92,9.76-1.68,19.53-2.65,29.28-.19,1.86-1.03,2.82-2.84,3.31-14.69,3.96-29.38,7.89-44.07,11.87-1.39,.38-2.77,1.05-4.29,.63-.44-.08-.91-.06-1.24-.43,.76,0,1.32-.21,1.25-1.13-.03-.4,0-.8,0-1.2,0-22.34-.03-44.68,.04-67.03,0-1.97-.58-2.41-2.47-2.4-32.14,.06-64.29,.04-96.43,.03-.83,0-1.74,.33-2.48-.37Z"/><path class="cls-3" d="M256,268.06c-.73-.02-1.46-.06-2.2-.06-34.38,0-68.77-.01-103.15-.02,.75-.68,1.66-.36,2.49-.36,33.42-.02,66.83-.02,100.25-.02q2.6,0,2.61-2.58c0-14.48,0-28.95,0-43.43,5.72-.02,11.44-.07,17.16-.07,15.51,0,31.01,.02,46.52,.04,.76,.78,.55,1.72,.47,2.65-1.04,11.56-2.02,23.12-3.08,34.68-.23,2.52-.39,5.05-.75,7.57-.21,1.45-.94,2.13-2.37,2.15-.47,0-.93,.03-1.4,.03-17.82,0-35.64,0-53.46,0-1.05,0-2.16,.16-3.08-.58Z"/><path class="cls-2" d="M434.86,100.8c-119.24,0-238.49,0-357.73,0-.72,0-1.47-.18-2.16,.18,.01,.66-.02,1.33,.04,1.99,1.09,12.3,2.18,24.59,3.28,36.88,1.96,21.93,3.93,43.86,5.88,65.79,1.39,15.55,2.76,31.1,4.14,46.65,1.95,21.86,3.92,43.73,5.87,65.59,1.39,15.55,2.76,31.1,4.14,46.65,1.81,20.34,3.65,40.67,5.46,61.01,1.26,14.09,2.53,28.18,3.7,42.27,.16,1.95,.83,2.77,2.77,3.31,47.9,13.22,95.78,26.52,143.65,39.83,1.27,.35,2.42,.39,3.69,.02,6.09-1.74,12.21-3.4,18.31-5.1,42.1-11.67,84.2-23.35,126.31-34.98,1.44-.4,2-.95,2.14-2.5,1.89-21.74,3.87-43.46,5.81-65.19,1.53-17.15,3.04-34.29,4.57-51.44,2.08-23.33,4.18-46.65,6.27-69.98,1.52-17.08,3.02-34.16,4.55-51.24,1.96-22,3.93-43.99,5.91-65.99,1.27-14.15,2.57-28.31,3.82-42.46,.62-7.04,1.16-14.09,1.74-21.13-.69-.37-1.44-.18-2.16-.18Zm-65.51,77.8c-1.38,14.2-2.63,28.42-3.9,42.64-.99,11.09-1.95,22.19-2.94,33.28-1.14,12.69-2.3,25.37-3.44,38.06-.86,9.63-1.7,19.27-2.56,28.9-1.15,12.82-2.31,25.64-3.45,38.46-.86,9.63-1.7,19.27-2.56,28.9-.51,5.71-1.09,11.42-1.5,17.14-.1,1.44-1,1.53-1.93,1.79-14.64,4.05-29.29,8.09-43.93,12.14-15.15,4.2-30.3,8.42-45.45,12.63-.38,.11-.79,.13-1.18,.19h0c-.17,.12-.34,.25-.51,.37-28.37-7.88-56.73-15.77-85.1-23.65-2.25-.62-4.48-1.3-6.74-1.85-1-.25-1.36-.71-1.45-1.76-1.33-15.55-2.7-31.09-4.08-46.63-.62-6.97-1.24-13.95-1.94-20.91-.17-1.67,.11-2.28,2.02-2.27,13.82,.1,27.64,.08,41.45,.01,1.61,0,2.02,.54,2.14,2.02,.91,10.97,1.9,21.92,2.83,32.89,.07,.86,.35,1.34,1.18,1.57,16.08,4.3,32.16,8.62,48.25,12.93,.06,.02,.13,0,.2,0,.36,.31,.99,.07,1.33,.41,9.8-2.67,19.59-5.35,29.39-8.02,6.43-1.75,12.85-3.5,19.29-5.19,1.19-.31,1.7-.75,1.81-2.08,1.62-18.52,3.3-37.04,5.04-55.55,.15-1.62-.54-1.69-1.79-1.69-17.14,.03-34.28,.02-51.42,.02-.75,0-1.5-.05-2.25-.08-.02,.03-.03,.06-.05,.08-.64,.29-1.32,.15-1.98,.15-32.5,0-64.99,0-97.49,0-.66,0-1.34,.15-1.97-.17-.75-3.12-.74-6.33-1.04-9.5-1.09-11.54-2.04-23.09-3.04-34.63-.03-.39,.05-.78,.07-1.18,.57-.29,1.18-.16,1.77-.16,33.94,0,67.88,0,101.82,0,.6,0,1.2-.09,1.79,.11,.03,.04,.06,.08,.09,.12,4.09-.03,8.18-.08,12.27-.08,14.93-.01,29.86-.04,44.79,.04,1.95,.01,2.51-.45,2.67-2.46,1.16-14.14,2.5-28.26,3.78-42.39,.05-.51,.03-1.03,.04-1.55-.78,.66-1.73,.57-2.64,.57-19.46,.02-38.91,.01-58.37,0-.93,0-1.88,.06-2.67-.59-.93-.03-1.86-.09-2.8-.09-34.57,0-69.15,0-103.72,0-2.94,0-3.05,.01-3.33-2.94-1.32-14.07-2.59-28.15-3.87-42.23,.66-.04,1.33-.12,1.99-.12,36.84,0,73.69,0,110.53,0,.4,0,.8,.04,1.2,.06h0c.73-.04,1.46-.1,2.19-.1,36.24,0,72.49,0,108.73-.04,1.92,0,2.65,.27,2.43,2.46Z"/></svg>