<?xml version="1.0" encoding="UTF-8"?><svg id="Layer_6" xmlns="http://www.w3.org/2000/svg" viewBox="0 0 512 512"><defs><style>.cls-1{fill:#010101;}.cls-2{fill:#fff;}.cls-3{fill:#ed4224;}</style></defs><path class="cls-2" d="M437.25,102.76c.07,0,.15,0,.22,0,0,136,0,272,.02,407.99,0,.96-.12,1.24-1.19,1.24-60.02-.03-120.04-.03-180.06-.03,2.73-1.1,5.61-1.69,8.43-2.47,23.85-6.63,47.72-13.22,71.58-19.83,22.18-6.14,44.35-12.3,66.54-18.41,1.24-.34,1.65-.82,1.76-2.14,.89-10.75,1.91-21.48,2.86-32.22,.88-9.83,1.72-19.66,2.6-29.49,.96-10.74,1.95-21.48,2.9-32.22,.96-10.78,1.89-21.57,2.85-32.35,1.04-11.65,2.11-23.3,3.15-34.95,.96-10.74,1.88-21.48,2.84-32.22,.87-9.79,1.77-19.57,2.65-29.36,.79-8.87,1.55-17.75,2.34-26.62,.79-8.87,1.61-17.74,2.4-26.62,.79-8.87,1.55-17.75,2.35-26.62,.79-8.87,1.61-17.75,2.4-26.62,.71-7.92,1.38-15.84,2.1-23.76,.4-4.44,.84-8.87,1.26-13.3Z"/><path class="cls-2" d="M74.52,102.76c.07,0,.15,0,.22,0,.43,4.52,.86,9.03,1.27,13.55,.63,7.01,1.25,14.02,1.87,21.02,.62,7.01,1.25,14.02,1.88,21.02,.71,8,1.43,16.01,2.14,24.01,.62,6.97,1.24,13.93,1.86,20.9,.71,8,1.43,16.01,2.14,24.01,.62,6.97,1.24,13.93,1.86,20.9,.71,8,1.43,16.01,2.15,24.01,.62,6.97,1.23,13.93,1.85,20.9,.71,8,1.43,16.01,2.15,24.01,.62,6.93,1.23,13.85,1.85,20.78,.72,8.04,1.44,16.09,2.15,24.13,.62,6.97,1.23,13.93,1.85,20.9,.71,7.96,1.42,15.92,2.13,23.88,.62,6.97,1.24,13.93,1.86,20.9,.72,8.04,1.44,16.09,2.16,24.13,.53,5.97,1.09,11.94,1.56,17.92,.08,.97,.41,1.31,1.31,1.56,21.63,5.96,43.24,11.95,64.86,17.93,25.34,7.02,50.68,14.03,76.02,21.06,1.87,.52,3.78,.89,5.57,1.67-59.85,0-119.71,0-179.56,.03-1.07,0-1.19-.28-1.19-1.24,.03-136,.02-272,.02-407.99Z"/><path class="cls-1" d="M337.24,.02c.02,.41,.05,.83,.05,1.24,0,22.12,0,44.24,.03,66.36,0,1.11-.24,1.43-1.4,1.42-6.83-.06-13.66-.06-20.49,0-1.02,0-1.2-.31-1.19-1.24,.03-10.37,.02-20.74,.02-31.12v-1.75c-5.45,8.4-10.72,16.51-16.06,24.72-5.33-8.2-10.56-16.27-15.98-24.6-.03,.73-.07,1.16-.07,1.59,0,10.37-.02,20.74,.02,31.12,0,1.07-.3,1.28-1.31,1.27-6.71-.05-13.41-.05-20.12,0-1.05,0-1.27-.26-1.27-1.29,.03-22.58,.02-45.15,.02-67.73h24.25c.64,.5,1.02,1.2,1.42,1.87,4.35,7.23,8.79,14.41,13.2,21.74,1.59-2.44,3-4.9,4.49-7.32,2.94-4.78,5.87-9.57,8.75-14.38,.4-.67,.79-1.37,1.39-1.91,8.08,0,16.16,0,24.25,0Z"/><path class="cls-1" d="M175.76,.02c-.03,.49-.1,.99-.1,1.48,0,22.03-.01,44.07,.02,66.1,0,1.1-.22,1.45-1.4,1.44-6.83-.06-13.66-.06-20.49,0-1.07,0-1.27-.3-1.27-1.31,.05-6.87,.01-13.74,.04-20.62,0-.83-.14-1.13-1.06-1.12-6.29,.04-12.58,.04-18.87,0-.86,0-1,.28-1,1.05,.03,6.91,0,13.83,.04,20.74,0,.93-.17,1.26-1.2,1.25-6.96-.05-13.91-.05-20.87,0-1.07,0-1.27-.3-1.27-1.31,.03-22.08,.02-44.15,.02-66.23,0-.49-.06-.99-.1-1.48,7.75,0,15.5,0,23.25,0,.52,.6,.42,1.33,.42,2.03,0,6.12,0,12.24,0,18.36,0,1.92,.02,1.94,1.95,1.94,5.49,0,10.99,0,16.48,0,1.62,0,1.7-.08,1.7-1.69,.01-6.2,0-12.4,0-18.61,0-.7-.1-1.43,.42-2.03h23.25Z"/><path class="cls-1" d="M249.5,.02c-.01,7.25-.05,14.49-.01,21.74,0,1.05-.27,1.29-1.3,1.28-6-.05-12,0-17.99-.05-.97,0-1.22,.23-1.22,1.21,.03,14.5,.01,28.99,.05,43.49,0,1.08-.22,1.36-1.34,1.35-6.83-.06-13.66-.05-20.49,0-.96,0-1.22-.22-1.22-1.21,.04-14.5,.01-28.99,.05-43.49,0-1.07-.22-1.37-1.33-1.35-5.96,.07-11.91,0-17.87,.06-.94,0-1.16-.23-1.15-1.16,.06-7.29,.06-14.58,.08-21.86h63.74Z"/><path class="cls-1" d="M371.73,.02c0,15.04,0,30.08-.03,45.12,0,.88,.23,1.1,1.1,1.1,10.04-.03,20.08,0,30.12-.05,1.19,0,1.39,.36,1.39,1.44-.05,6.75-.04,13.5,0,20.25,0,.9-.16,1.17-1.13,1.17-17.79-.03-35.58-.03-53.36-.01-.78,0-1.15-.05-1.15-1.03,.03-22.45,.03-44.91,.03-67.36,0-.21,.03-.41,.05-.62,7.67,0,15.33,0,23,0Z"/><path class="cls-2" d="M152.51,.02c.01,7.33,.02,14.66,.06,21.98,0,.73-.29,.79-.88,.79-6.45-.01-12.91-.01-19.36,0-.58,0-.88-.06-.88-.79,.04-7.33,.04-14.66,.06-21.98h21Z"/><path class="cls-2" d="M312.99,.02c0,.59-.44,.96-.71,1.41-4.43,7.31-8.87,14.61-13.31,21.91-.17,.28-.37,.55-.6,.88-4.41-7.24-8.79-14.42-13.16-21.62-.51-.84-1.15-1.62-1.47-2.58h29.25Z"/><path class="cls-3" d="M434.88,100.08c-119.26,0-238.52,0-357.78,0-2.44,0-2.44,0-2.44,2.48,.14,2.28,.17,4.57,.37,6.85,.44,5.06,.91,10.11,1.35,15.17,.37,4.35,.79,8.7,1.16,13.06,.34,4.02,.75,8.04,1.09,12.06,.44,5.23,.92,10.45,1.38,15.67,.46,5.18,.91,10.36,1.39,15.54,.47,5.06,.89,10.12,1.34,15.17,.47,5.22,.94,10.44,1.4,15.67,.45,5.1,.91,10.2,1.35,15.3,.45,5.14,.93,10.28,1.39,15.42,.46,5.1,.88,10.2,1.35,15.3,.56,6.01,1.09,12.02,1.62,18.03,.46,5.22,.91,10.45,1.38,15.67,.54,6.05,1.09,12.1,1.63,18.16,.55,6.09,1.06,12.19,1.62,18.28,.63,6.96,1.25,13.93,1.88,20.89,.63,7.01,1.23,14.01,1.86,21.02,.72,7.96,1.42,15.92,2.14,23.88,.71,7.92,1.39,15.84,2.1,23.76,.79,8.87,1.59,17.74,2.4,26.61,.76,8.37,1.44,16.75,2.25,25.12,.2,2.09,.22,2.08,2.29,2.66,9.67,2.69,19.35,5.36,29.02,8.04,13.24,3.68,26.49,7.35,39.74,11.01,15.37,4.26,30.73,8.57,46.13,12.75,10.32,2.8,20.52,6.03,30.98,8.32h1c.99-.35,2.05-.28,3.05-.56,14.19-3.99,28.42-7.89,42.62-11.83,16.74-4.65,33.48-9.28,50.21-13.92,11.8-3.27,23.6-6.53,35.4-9.81,5.22-1.45,10.44-2.87,15.66-4.34,.92-.26,1.57-.66,1.66-1.73,.24-2.74,.52-5.47,.75-8.21,.44-5.31,.97-10.61,1.41-15.92,.34-4.02,.75-8.04,1.09-12.06,.44-5.23,.92-10.45,1.38-15.67,.54-6.09,1.08-12.19,1.63-18.28,.48-5.26,.95-10.53,1.41-15.79,.35-4.02,.75-8.04,1.08-12.06,.43-5.23,.95-10.45,1.39-15.67,.34-4.11,.76-8.21,1.11-12.31,.45-5.23,.92-10.45,1.38-15.67,.46-5.14,.9-10.28,1.37-15.42,.47-5.1,.9-10.2,1.37-15.3,.47-5.14,.93-10.28,1.38-15.42,.45-5.14,.93-10.28,1.36-15.42,.37-4.35,.77-8.7,1.16-13.06,.45-5.02,.88-10.03,1.35-15.05,.47-5.14,.9-10.28,1.38-15.42,.48-5.1,.9-10.2,1.36-15.3,.47-5.18,.94-10.36,1.39-15.54,.45-5.14,.92-10.28,1.36-15.42,.37-4.27,.76-8.54,1.14-12.81,.45-5.06,.89-10.12,1.35-15.17,.47-5.26,.92-10.53,1.41-15.79,.48-5.1,.9-10.2,1.37-15.3,.47-5.05,.95-10.1,1.1-15.18q0-2.45-2.47-2.45Zm-65.4,76.42c-.04,3.37-.54,6.7-.82,10.04-.49,5.83-1.1,11.65-1.65,17.48-.53,5.66-1.05,11.32-1.58,16.99,.08,.43,0,.75-.54,.73-.37-.01-.75,0-1.12,0-35.73,0-71.47,0-107.2,0-21.12,0-42.23,0-63.35-.04-1.07,0-1.43,.12-1.31,1.38,1.07,11.06,2.04,22.12,3.04,33.19,.33,3.6,.71,7.21,.94,10.82,.07,1.08,.53,1.14,1.37,1.14,14.29-.02,28.57-.02,42.86-.01,5.21,0,10.41,.03,15.62,.04,.41-.02,.83-.05,1.24-.05,34.28,0,68.56,0,102.83-.03,1.24,0,1.51,.29,1.4,1.5-1.1,11.6-2.15,23.2-3.19,34.8-.96,10.69-1.87,21.39-2.83,32.08-.96,10.69-1.96,21.38-2.92,32.07-.96,10.69-1.89,21.39-2.83,32.08-.17,1.95-.37,3.89-.51,5.84-.05,.77-.34,1.15-1.12,1.36-20.83,5.75-41.65,11.53-62.48,17.3-9.63,2.67-19.26,5.34-28.9,8.01-.23,.06-.46,.15-.69,.22-6.79-1.88-13.59-3.75-20.38-5.65-19.18-5.34-38.36-10.7-57.54-16.04-4.72-1.31-9.42-2.65-14.15-3.93-.68-.18-.89-.45-.95-1.16-.97-11.19-1.98-22.38-2.99-33.56-.96-10.65-1.95-21.29-2.91-31.94-.12-1.33-.18-2.66-.33-3.98-.08-.7,.1-.99,.84-.93,.83,.06,1.66,.01,2.5,.01,13.53,0,27.07,.01,40.6-.03,1.14,0,1.65,.17,1.75,1.47,.37,5.15,.87,10.28,1.32,15.42,.53,6.05,1.06,12.1,1.57,18.15,.07,.84,.24,1.36,1.26,1.62,16.24,4.3,32.47,8.66,48.7,13.01,.32,.09,.64,.2,.98,.08,.07-.07,.14-.09,.21-.1,.03-.01,.05-.03,.07-.04,2.03-1.02,4.28-1.35,6.44-1.94,13.87-3.74,27.74-7.46,41.62-11.18,1.62-.43,1.79-.57,1.94-2.29,.5-5.97,1.05-11.94,1.58-17.9,.54-6.01,1.09-12.02,1.62-18.03,.58-6.51,1.2-13.01,1.76-19.52,.06-.75-.22-1.09-.96-1.1-.46,0-.92-.01-1.37-.01-16.95,0-33.89,0-50.84,0-.79,0-1.59,.05-2.32-.33v-.09c-3.87,0-7.74,.02-11.61,.02-29.45,0-58.91,0-88.36,.03-1.11,0-1.44-.28-1.53-1.41-.49-6.1-1.08-12.19-1.62-18.28-.54-6.01-1.06-12.02-1.61-18.03-.54-5.97-1.1-11.93-1.64-17.9-.54-5.97-1.07-11.94-1.61-17.91-.54-6.01-1.1-12.02-1.64-18.03-.54-5.97-1.07-11.94-1.61-17.91-.54-6.01-1.09-12.02-1.64-18.03-.27-2.98-.54-5.97-.83-8.95-.06-.58,.09-.87,.72-.79,.25,.03,.5,0,.75,0,74.82,0,149.64-.01,224.46,0,.5,0,1.06-.26,1.5,.23h0s0,0,0,0Z"/></svg>