<?xml version="1.0" encoding="UTF-8"?><svg id="Layer_3" xmlns="http://www.w3.org/2000/svg" viewBox="0 0 512 512"><defs><style>.cls-1{fill:none;stroke:#323330;stroke-miterlimit:10;stroke-width:15px;}.cls-2{fill:#f9f2b3;}.cls-3{fill:#f4e253;}.cls-4{fill:#fcf6c9;}.cls-5{fill:#323330;}.cls-6{fill:#333430;}</style></defs><path class="cls-4" d="M511.09,.86c-1.49-.02-2.98-.05-4.48-.05-168.86,0-337.72,0-506.58,0C.17,.61-.29,.14,.35,.16c.85,.03,1.71,0,2.56,0,168.68,0,337.36,0,506.05,.04,.94,0,2.17-.74,2.88,.6-.22,.36-.47,.38-.74,.06Z"/><path class="cls-2" d="M511.09,.86c.25-.02,.5-.04,.74-.06,0,169.39,0,338.77-.04,508.16,0,.94,.74,2.17-.6,2.88-.21-.12-.3-.26-.26-.42,.04-.17,.1-.25,.16-.25,.03-1.28,.09-2.55,.09-3.83,0-167.55,0-335.09,0-502.64,0-1.28-.06-2.55-.1-3.83Z"/><path class="cls-3" d="M511.1,511.16c.03,.23,.07,.45,.1,.68-169.43,0-338.86,0-508.29-.04-.94,0-2.17,.74-2.88-.6,168.76,0,337.51,0,506.27,0,1.6,0,3.2-.02,4.8-.04Z"/><g><g><path class="cls-5" d="M399.75,476.21c-22.73-.22-43.21-5.1-61.17-18.28-9.87-7.25-17.62-16.35-23.67-26.97-1.25-2.19-1.19-3.24,1.15-4.56,11.13-6.28,22.19-12.7,33.2-19.2,1.92-1.13,2.87-1.2,4.13,.91,2.9,4.87,6.42,9.33,10.64,13.16,14.81,13.47,32.01,16.36,50.61,10.27,12.56-4.12,18.2-15.24,14.89-27.01-1.49-5.3-4.88-9.19-9.26-12.32-8-5.72-17.12-9.25-26.05-13.14-11.33-4.94-22.8-9.57-33.32-16.19-15.88-9.99-27.67-23.1-31.52-42-4.17-20.45-1.77-39.67,11.95-56.36,7.6-9.24,17.32-15.5,28.68-19.04,19.86-6.19,39.71-5.92,59.19,1.49,15.06,5.73,25.52,16.83,33.63,30.42,.78,1.31,.55,1.94-.68,2.72-11.14,7.09-22.25,14.22-33.33,21.41-1.43,.93-2.04,.7-2.9-.7-1.59-2.58-3.26-5.15-5.21-7.46-8.45-10.04-19.36-12.96-31.74-9.83-14.98,3.79-20.08,22.74-9.43,34,4.26,4.51,9.63,7.4,15.16,9.93,11.24,5.13,22.62,9.99,33.83,15.18,8,3.7,15.57,8.19,22.67,13.46,15.74,11.66,24.61,27.14,26.08,46.73,1.35,18.09-1.94,34.9-14.24,49.01-10.02,11.5-23.05,17.86-37.62,21.45-8.7,2.14-17.57,2.85-25.66,2.95Z"/><path class="cls-6" d="M287.51,330.4c0,27.25,.4,54.5-.14,81.74-.35,17.44-5.64,33.44-18.48,46.11-9.61,9.48-21.48,14.46-34.6,16.53-17.94,2.84-35.55,1.86-52.36-5.74-15.64-7.08-26.72-18.84-34.47-33.97-.82-1.59-.49-2.33,.96-3.19,11.51-6.89,22.99-13.82,34.43-20.83,1.67-1.03,2.4-.85,3.33,.86,2.83,5.15,5.87,10.17,10.07,14.37,8.21,8.21,22.99,10.4,33.27,4.95,5.18-2.75,7.92-7.32,9.44-12.76,1.51-5.41,1.66-10.96,1.66-16.52,0-51.36,.03-102.71-.07-154.07,0-3.07,.59-4.09,3.91-4.03,13.31,.22,26.63,.19,39.94,.02,2.89-.04,3.42,.87,3.41,3.54-.09,27.67-.06,55.34-.06,83.01-.08,0-.17,0-.25,0Z"/></g><rect class="cls-1" x="7.58" y="7.58" width="496.84" height="496.84"/></g></svg>