<?xml version="1.0" encoding="UTF-8"?><svg id="Layer_2" xmlns="http://www.w3.org/2000/svg" viewBox="0 0 511.66 265.7"><defs><style>.cls-1{fill:#040403;}.cls-2{fill:#040303;}.cls-3{fill:#010101;}.cls-4{fill:#010201;}.cls-5{fill:#020202;}.cls-6{fill:#0a0909;}</style></defs><path class="cls-4" d="M102.09,191.47c-.64-5.62,1.89-10.64,3.03-15.92,.32-1.47,1.67-1.33,2.84-1.45,8.48-.92,11.27-3.41,13.17-12.01,2.11-9.59,4.09-19.22,6.16-28.82,.81-3.74,2.21-7.42,2.46-11.19,.37-5.5,3.32-6.46,7.96-5.97,4.13,.44,9.74-1.76,12.07,.79,2.45,2.68-.7,7.8-1.54,11.79-2.83,13.51-5.85,26.99-8.92,40.45-2.21,9.67-6.37,18.03-16.1,22.33h-21.12Z"/><path class="cls-5" d="M.02,124.31c.16-2.96,.72-6.79,2.3-10.98,1.75-4.63,3.89-7.89,5.24-9.4,.77-.85,1.47-1.75,3.33-3.97-6.15,23.65,1.62,41.14,19.83,53.49,18.2,12.34,37.3,12.78,56.12-.53-6.89,11.79-14.98,15.98-18.84,17.56-25.85,10.61-62.62-13.55-67.44-38.86-.61-3.2-.6-5.86-.54-7.32Z"/><path class="cls-3" d="M280.65,163.65c-4.35,0-8.71,.07-13.06-.01-14.26-.28-21.02-7.37-20.62-21.69,.19-6.7,1.92-13.18,3.19-19.71,1.52-7.84,3.31-15.62,4.91-23.44,.53-2.56,1.43-4.13,4.58-3.83,3.48,.34,7.05,.36,10.53,0,4.12-.41,4.25,1.45,3.58,4.65-2.54,12.22-5,24.47-7.36,36.73-1.37,7.13,.99,10.09,8.1,10.62q12.04,.9,14.51-10.79c2.65-12.37,5.47-24.71,7.94-37.11,.6-3.04,1.59-4.53,4.81-4.05,1.15,.17,2.34,.03,3.51,.03,11.04,0,10.98-.01,8.66,10.56-3.93,17.88-7.92,35.75-11.52,53.7-.76,3.77-2.39,4.51-5.7,4.39-5.35-.19-10.71-.05-16.07-.05Z"/><path class="cls-3" d="M511.31,85c-9.81,13.05-18.91,25.15-28.01,37.25-3.31,4.41-6.44,8.98-10.01,13.17-6.05,7.1-10.82,14.77-12.06,24.18-.41,3.11-1.86,4.24-4.97,4.1-4.51-.21-9.04-.17-13.55-.01-2.65,.1-3.58-1.22-2.6-3.28,5.16-10.86,1.4-21.04-1.77-31.42-1.22-4.01-4.66-9.08-2.37-12.04,2.06-2.66,7.87-.77,12.01-.76,9.69,.01,7.15-1.62,10.25,10.57,1.72,.06,2.01-1.53,2.68-2.51,8.13-11.82,16.26-23.64,24.25-35.56,1.73-2.59,3.54-3.95,6.88-3.77,5.98,.32,11.99,.09,19.26,.09Z"/><path class="cls-3" d="M433.46,112.12c-5.69,0-11.39,.16-17.07-.07-2.97-.12-4.11,1.05-4.67,3.81-2.93,14.51-6.14,28.97-8.91,43.5-.65,3.39-1.97,4.52-5.23,4.32-3.33-.2-6.71-.28-10.03,.02-4.06,.37-4.4-1.64-3.72-4.77,4.36-20.04,8.71-40.07,13.02-60.12,.56-2.62,1.69-3.9,4.72-3.85,12.88,.19,25.77,0,38.66,.16,8.91,.11,14.63,6.21,14.55,15.06-.02,2.43-1.87,1.9-3.24,1.91-6.02,.05-12.05,.02-18.07,.02Z"/><path class="cls-2" d="M33.65,93.92c-2.35,18.04,3.23,30.42,17.75,38.39,13.74,7.54,27.04,7.01,39.28-4.15-3.8,10.11-14.08,16.74-26.04,17.04-15.73,.39-29.18-7.93-35.13-21.75-4.81-11.17-3.42-21.98,4.14-29.53Z"/><path class="cls-1" d="M142.03,111.42q-9.68,0-7.67-9.52,1.51-7.14,8.94-7.14c3.17,0,6.33,.08,9.49-.02,2.35-.07,2.92,1.01,2.39,3.07-.29,1.12-.61,2.24-.84,3.38q-2.14,10.24-12.31,10.24Z"/><path class="cls-6" d="M86.62,113.38c-4.65,6.32-10.73,7.46-17.16,6.62-8.96-1.16-15.39-6.22-18.67-14.67-2.35-6.03-1.91-11.93,2.83-17.83-2.81,16.63,12.07,32.42,33,25.88Z"/><path class="cls-3" d="M216.62,77.32c-6.47-1.41-18.15-.44-18.93-.32-11.64,1.82-21.11,7.32-27.81,17.02-8.89,12.89-12.9,27.33-12.4,42.96,.47,14.51,9.38,24.46,23.85,26.33,14.16,1.83,28.43,.67,42.64,.7,14.2,.03,10.98,2.61,14.93-11.4,2.08-7.36,1.02-6.57-4.7-6.23-3.01,.18-3.75-.44-2.51-3.51,3.43-8.48,6.5-17.1,8.58-26.04,4.38-18.85-5.18-35.49-23.66-39.51Zm3.74,33.53c-1.24,11.29-5.47,21.87-8.36,32.77-.57,2.14-2.08,2.34-3.82,2.34-2.67,0-5.35,0-8.02,0,0-.02,0-.04,0-.06-2.84,0-5.7,.24-8.51-.04-8.32-.83-12.88-5.23-13.03-13.56-.18-10.29,2.03-20.19,7.93-28.88,5.47-8.05,16.98-11.2,25.88-7.36,5.45,2.35,8.71,7.84,7.94,14.79Z"/><path class="cls-3" d="M368.61,95.25c-6.39-1.83-12.99-1.64-19.43-1-14.01,1.41-23.81,8.72-28.96,22.04-3.22,8.33-4.95,16.98-5.62,25.81-.83,10.96,5.51,18.88,16.35,21.23,9.28,2.02,18.67,.75,28,.97,4.31,.1,9.5,1.71,12.71-.72,3-2.27,2.14-7.7,3.41-11.62,.1-.31,.3-.6,.37-.92,.61-2.57,.16-3.87-3.06-3.83-9.2,.13-18.41-.05-27.61-.25-2.48-.05-5.01-.37-7.25-1.67-2.87-1.66-3.64-4.39-3.05-7.33,.58-2.92,3.25-1.7,5.04-1.75,5.69-.14,11.38-.05,17.08-.05,6.36,0,12.73-.06,19.09,.03,2.35,.03,3.53-.66,4.14-3.17,1.18-4.87,2.27-9.76,2.66-14.73,.97-12.35-3.82-20.17-13.84-23.04Zm-5.94,24.32c-1.44,2.39-3.03,1.75-5.39,1.78-2.49,.04-5.01,.07-7.53,.07-3.01,0-6.03-.12-9.04,.03-3.42,.17-3.08-1.43-1.98-3.63,3.25-6.5,14.87-9.61,21.1-5.7,2.89,1.81,4.35,4.94,2.83,7.45Z"/></svg>