<?xml version="1.0" encoding="UTF-8"?><svg id="Layer_4" xmlns="http://www.w3.org/2000/svg" viewBox="0 0 512 512"><defs><style>.cls-1{fill:#ed2025;}.cls-2{fill:#fff;}.cls-3{fill:#fefefe;}.cls-4{fill:#bcb9bb;}.cls-5{fill:#a8a4a5;}.cls-6{fill:#0c0a0e;}.cls-7{fill:#0b090e;}.cls-8{fill:#0c090d;}.cls-9{fill:#0c090e;}.cls-10{fill:#08080c;}.cls-11{fill:#0d0a10;}.cls-12{fill:#0e0b11;}</style></defs><path class="cls-4" d="M5.54,389.43c.22-.06,.44-.07,.66-.01,1.18,1.31,1.13,2.93,1.13,4.52,.02,36.66,.02,73.32,0,109.97,0,1.58,.13,3.22-1.04,4.55-.25,.01-.5,.03-.74,.04,0-39.69,0-79.38,0-119.07Z"/><path class="cls-5" d="M505.64,389.46l.73-.03v119.07c-.27-.04-.55-.08-.82-.12-1.14-1.35-.96-3-.96-4.57-.02-36.6-.02-73.2,0-109.8,0-1.58-.12-3.22,1.06-4.55Z"/><path class="cls-1" d="M233.24,207.58c9.66-5.54,18.74-10.73,27.8-15.95,10.37-5.97,20.69-12.03,31.12-17.88,2.11-1.18,2.73-2.5,2.73-4.82-.08-25.2,.01-50.4-.11-75.6-.02-4.03,1.42-6.53,4.91-8.53,23.55-13.44,47.05-26.98,70.5-40.62,3.49-2.03,6.38-1.92,9.83,.08,23.45,13.63,46.96,27.14,70.51,40.6,3.36,1.92,4.74,4.37,4.72,8.28-.12,26.91-.13,53.82,0,80.73,.02,4.1-1.54,6.47-5,8.44-22.07,12.58-44.04,25.36-66.12,37.94-2.18,1.25-2.96,2.56-2.95,5.03,.09,25.09-.02,50.17,.13,75.26,.02,4.15-1.34,6.77-4.96,8.84-48.34,27.72-96.63,55.52-144.9,83.36-3.11,1.79-5.83,1.78-8.95-.02-48.56-28.02-97.14-56-145.76-83.91-3.28-1.88-4.04-4.52-4.04-7.96,.05-46.07,.03-92.13,.03-138.2,0-36.94,.05-73.89-.07-110.83-.01-4.31,1.52-6.97,5.22-9.07C101.54,29.27,125.13,15.67,148.71,2.04c3-1.73,5.66-1.67,8.64,.05,23.57,13.64,47.16,27.24,70.82,40.73,3.73,2.12,5.14,4.83,5.13,9.11-.11,50.29-.07,100.57-.07,150.86,0,1.36,0,2.72,0,4.79Z"/><path class="cls-12" d="M282.68,438.38c0-2.41,.16-3.99-.03-5.52-.41-3.19,.62-4.53,4.05-4.25,3.62,.3,7.31,.27,10.94,0,3.2-.23,4.33,.68,4.25,4.08-.23,10.03-.08,20.07-.08,30.1,0,14.25-.05,28.51,.05,42.76,.02,2.35-.57,3.21-3.03,3.11-4.44-.19-8.89-.17-13.34,0-2.32,.09-3.02-.76-2.84-2.96,.16-1.88,.03-3.78,.03-6.61-4.66,5.25-9.61,8.49-15.47,10.25-17.13,5.16-36.43-3.75-45.26-20.91-12.19-23.69,.12-53.39,25.14-60.16,13.31-3.6,25.29-1.16,35.58,10.1Z"/><path class="cls-7" d="M131.38,438.14c.15-.86,.25-1.19,.27-1.52q.33-7.94,8.42-7.94c2.51,0,5.03,.17,7.52-.04,2.66-.22,3.26,.89,3.22,3.35-.13,8.09-.05,16.19-.05,24.28,0,16.3-.05,32.61,.05,48.91,.02,2.56-.46,3.67-3.32,3.51-4.43-.25-8.89-.15-13.33-.03-1.94,.05-2.66-.56-2.53-2.52,.14-2.09,.03-4.21,.03-7.24-3.61,4.21-7.1,7.03-11.31,8.85-18.71,8.1-40.73-.91-50-20.45-11.25-23.72,1.14-52.48,25.57-58.99,13.43-3.58,25.45-1.18,35.45,9.83Z"/><path class="cls-11" d="M443.92,475.9c-9.23,0-18.47,.07-27.7-.04-2.58-.03-3.1,.66-2.4,3.16,3.97,14.16,20.19,20.49,34.46,13.35,3.92-1.96,7.31-4.65,10.24-7.88,1.15-1.27,2-1.39,3.38-.24,3.06,2.55,6.28,4.92,9.46,7.33,1.02,.77,1.58,1.33,.54,2.71-15.05,19.86-49.15,22.28-66.3,4.18-12.03-12.68-14.17-28.07-8.63-44.22,5.3-15.44,16.65-24.74,32.76-26.99,16.15-2.25,29.4,3.57,38.58,17.32,5.77,8.64,7.64,18.39,7.02,28.7-.15,2.46-1.45,2.65-3.37,2.64-9.35-.05-18.7-.02-28.04-.02Z"/><path class="cls-10" d="M6.28,508.46c-.02-38.43-.03-76.86-.05-115.28,0-1.25-.02-2.51-.04-3.76,6.01-.68,12.05-.1,18.07-.31,2.27-.08,1.83,1.5,1.83,2.8,.01,8.09,0,16.19,0,24.28,0,23.6,.05,47.19-.06,70.79-.01,2.8,.68,3.66,3.56,3.61,10.03-.18,20.06,0,30.09-.12,2.45-.03,3.5,.51,3.35,3.2-.22,4.09-.12,8.21-.03,12.31,.04,1.78-.28,2.69-2.38,2.68-18.12-.12-36.23-.14-54.35-.19Z"/><path class="cls-9" d="M352.95,488.18c3.48-9.01,6.92-17.91,10.35-26.82,3.84-9.98,7.71-19.96,11.46-29.97,.75-2.02,1.79-2.84,4-2.75,4.32,.17,8.67,.2,12.98,0,3.07-.15,3.44,.75,2.37,3.48-5.84,14.89-11.55,29.83-17.29,44.76-3.72,9.67-7.49,19.32-11.1,29.03-.74,2-1.68,2.84-3.9,2.78-6.03-.16-12.08-.13-18.11-.01-2.1,.04-3.16-.51-3.98-2.65-9.35-24.57-18.85-49.09-28.29-73.62-1.41-3.67-1.39-3.69,2.62-3.7,3.99,0,7.98,.16,11.96-.06,2.56-.14,3.79,.71,4.72,3.16,6.64,17.57,13.43,35.07,20.21,52.58,.48,1.25,.7,2.67,2,3.81Z"/><path class="cls-6" d="M505.64,389.46c-.03,23.12-.07,46.25-.09,69.37-.01,16.52,0,33.03,0,49.55-5.69,.08-11.39,.13-17.08,.25-1.46,.03-2.12-.52-1.98-2,.05-.57,0-1.14,0-1.71,0-37.4,.04-74.81-.05-112.21,0-2.77,.58-3.87,3.52-3.64,5.21,.4,10.47-.41,15.68,.39Z"/><path class="cls-8" d="M164.78,468.84c0-12.2,.08-24.4-.06-36.6-.03-2.88,.87-3.65,3.69-3.62,14.7,.13,29.41,.11,44.11,0,2.61-.02,3.71,.59,3.55,3.42-.23,4.21-.16,8.44-.02,12.65,.07,2.23-.68,2.96-2.94,2.93-8.55-.11-17.1,.07-25.65-.11-2.81-.06-3.66,.68-3.64,3.58,.13,18.01,0,36.03,.14,54.04,.02,2.93-.88,3.7-3.66,3.54-4.09-.22-8.21-.2-12.31,0-2.54,.12-3.31-.64-3.28-3.23,.14-12.2,.06-24.4,.06-36.6Z"/><path class="cls-2" d="M85.14,60.13c13.05,7.52,25.48,14.69,37.9,21.84,6.91,3.98,13.77,8.07,20.79,11.84,2.42,1.3,2.95,2.88,2.95,5.42-.07,52.67,.01,105.34-.15,158.01-.02,5.37,1.77,8.51,6.48,11.12,21.83,12.08,43.47,24.5,65.21,36.74,1.62,.91,2.59,1.75,2.58,3.86-.08,22.23-.05,44.46-.06,66.69,0,.33-.08,.65-.13,1.03-1.42,.23-2.33-.77-3.37-1.36-43.06-24.76-86.11-49.54-129.19-74.26-2.07-1.19-3.08-2.38-3.08-4.99,.09-77.41,.07-154.81,.07-232.22,0-1,0-2,0-3.72Z"/><path class="cls-2" d="M233.39,377.13c-.07-1.34-.15-2.23-.15-3.12,0-21.55,0-43.11-.03-64.66,0-1.82,.25-3.07,2.12-4.13,43.68-24.84,87.32-49.77,130.97-74.69,.67-.38,1.36-.73,2-1.07,.85,.81,.53,1.65,.53,2.38,.02,21.44,0,42.88,.07,64.32,0,2.18-.55,3.44-2.54,4.59-43.49,24.95-86.93,49.99-130.38,75.01-.68,.39-1.39,.73-2.58,1.36Z"/><path class="cls-2" d="M165.62,260.91c9.99-5.76,19.44-11.22,28.91-16.67,34.57-19.9,69.15-39.79,103.71-59.69,1.49-.86,2.72-1.71,4.65-.59,19.61,11.39,39.27,22.67,58.89,33.97,.04,1.36-1.1,1.45-1.79,1.85-43.34,24.76-86.71,49.48-130.01,74.3-2.34,1.34-3.93,1.16-6.15-.11-18.1-10.36-36.28-20.59-54.43-30.86-1.09-.62-2.16-1.26-3.77-2.21Z"/><path class="cls-2" d="M220.85,60.1c0,2.48,0,4.27,0,6.06,0,48.55,0,97.1,.03,145.65,0,1.83-.23,3.11-2.07,4.16-19.39,11.06-38.72,22.23-58.07,33.36-.28,.16-.61,.25-.95,.38-1.04-.79-.58-1.89-.59-2.82-.03-49.46-.03-98.93-.02-148.39,0-1.45-.21-2.81,1.5-3.79,19.87-11.37,39.68-22.81,60.17-34.61Z"/><path class="cls-2" d="M436.35,91.4c-16.11,9.27-31.8,18.31-47.5,27.35-3.95,2.27-7.93,4.51-11.84,6.85-1.3,.78-2.36,.94-3.76,.13-19.53-11.3-39.09-22.56-58.64-33.83-.19-.11-.31-.32-.74-.78,4.17-2.44,8.25-4.86,12.36-7.22,15.41-8.87,30.84-17.71,46.23-26.6,1.55-.89,2.78-1.43,4.64-.35,19.21,11.17,38.49,22.23,57.74,33.33,.38,.22,.71,.52,1.49,1.11Z"/><path class="cls-2" d="M91.42,49.4c9.24-5.32,17.9-10.3,26.56-15.28,10.85-6.25,21.71-12.49,32.55-18.77,1.44-.83,2.6-1.36,4.34-.34,19.4,11.26,38.86,22.42,58.3,33.61,.29,.17,.58,.34,1.31,.76-4.99,2.88-9.47,5.47-13.96,8.06-15,8.64-29.99,17.28-44.99,25.91-1.33,.77-2.43,1.6-4.29,.52-19.68-11.45-39.44-22.76-59.82-34.48Z"/><path class="cls-2" d="M381.22,207.21v-13.85c0-17.66,.03-35.33-.05-52.99,0-2.08,.6-3.23,2.45-4.28,18.79-10.72,37.54-21.52,56.26-32.39,2.27-1.32,2.97-1.3,2.96,1.61-.08,21.42-.05,42.85-.03,64.27,0,1.53-.09,2.72-1.73,3.65-19.58,11.18-39.12,22.45-58.67,33.68-.18,.11-.43,.11-1.2,.29Z"/><path class="cls-2" d="M368.42,207.39c-14.26-8.21-28.27-16.27-42.28-24.33-5.63-3.24-11.21-6.56-16.89-9.7-1.51-.83-2.07-1.75-2.06-3.46,.05-21.66,.07-43.32,0-64.99,0-2.72,.82-2.47,2.68-1.4,19.04,11,38.1,21.96,57.17,32.91,1.18,.68,1.85,1.41,1.85,2.91-.05,22.35-.04,44.69-.06,67.04,0,.2-.15,.39-.39,1.02Z"/><path class="cls-2" d="M236.64,468.49c.02-11.14,5.92-20.09,15.46-23.46,13.75-4.85,28.62,4.95,30.35,19.99,1.32,11.47-3.59,21.52-13.14,26.22-10.62,5.23-23.78,1.86-29.84-9.9-2.11-4.1-2.84-7.59-2.83-12.85Z"/><path class="cls-2" d="M85.46,467.75c.16-7.4,2.84-14.7,9.92-19.71,14.13-9.99,32.69-1.59,35.75,16.09,3.32,19.15-13.12,34.24-30.61,28.08-9.07-3.2-15.1-12.57-15.07-24.46Z"/><path class="cls-3" d="M435.23,461.5c-6.25,0-12.51-.09-18.76,.05-2.44,.05-3.13-.43-2.46-3.02,2.7-10.46,10.27-16.33,21.42-16.31,10.9,.02,18.8,6.18,21.37,16.51,.52,2.1,.19,2.86-2.12,2.81-6.48-.12-12.96-.04-19.44-.04Z"/></svg>