<?xml version="1.0" encoding="UTF-8"?><svg id="Layer_1" xmlns="http://www.w3.org/2000/svg" viewBox="0 0 511.06 265.7"><defs><style>.cls-1{fill:#8a92c2;}.cls-2{fill:#222432;}</style></defs><path class="cls-1" d="M255.75,.03c27.34-.32,54.47,2.09,81.36,6.77,30.34,5.28,59.84,13.6,87.9,26.54,21.17,9.76,40.89,21.74,57.48,38.3,12.55,12.53,22.4,26.85,26.54,44.45,4.7,19.96,1.09,38.63-9.39,56.01-12.63,20.95-31.06,35.79-51.76,48.11-24.95,14.85-51.9,24.71-79.9,31.88-19.56,5.01-39.39,8.46-59.47,10.61-13.07,1.4-26.17,2.11-39.3,2.72-12.63,.58-25.23,.18-37.81-.38-16.14-.72-32.22-2.39-48.21-4.86-21.26-3.27-42.18-7.94-62.62-14.6-29.65-9.67-57.7-22.53-81.92-42.57-16.43-13.59-29.76-29.61-35.77-50.6-5.19-18.12-3.22-35.69,5.11-52.51,9.26-18.7,23.69-32.84,40.39-44.84,26.75-19.2,56.83-31.13,88.31-39.9,17.77-4.95,35.85-8.53,54.12-10.97,12.9-1.72,25.86-2.91,38.88-3.58,8.7-.44,17.39-.36,26.08-.58Z"/><path class="cls-2" d="M366.43,174.83c-5.22,0-10.46,.25-15.66-.09-3.52-.23-4.58,1.17-5.13,4.39-1.66,9.85-3.74,19.62-5.43,29.46-.43,2.52-1.5,3.05-3.84,3.02-9.03-.12-18.06-.1-27.09-.02-2.24,.02-2.98-.32-2.46-2.92,6.65-33.09,13.16-66.22,19.7-99.33,2.44-12.35,4.93-24.69,7.24-37.07,.36-1.94,1.04-2.45,2.91-2.44,21,.07,42-.17,62.99,.15,10.83,.17,21.11,2.94,29.62,10.2,6.87,5.87,10.43,13.64,11.37,22.44,2.88,26.97-8.73,52.8-33.55,65.75-8.82,4.6-18.28,6.78-28.28,6.49-4.13-.12-8.27-.02-12.4-.02v-.03Z"/><path class="cls-2" d="M135.03,69.89c9.46,0,18.93-.09,28.39,.03,10.41,.13,20.29,2.34,28.96,8.44,9.26,6.5,13.37,15.98,14.01,26.8,1.27,21.67-5.16,40.59-21.9,55.15-11.16,9.7-24.25,14.62-39.11,14.58-10.01-.02-20.02,.08-30.03-.11-2.64-.05-3.52,.91-3.96,3.32-1.88,10.36-3.99,20.67-5.85,31.03-.34,1.91-1.02,2.46-2.9,2.45-9.36-.08-18.71-.1-28.07,.02-2.33,.03-2.78-.75-2.36-2.85,3.56-17.77,7.08-35.54,10.59-53.32,5.39-27.25,10.82-54.48,16.05-81.76,.6-3.13,1.78-3.94,4.83-3.88,10.44,.19,20.89,.07,31.33,.07,0,.01,0,.02,0,.03Z"/><path class="cls-2" d="M273.09,69.86c9.13-.04,18.25-.37,27.18,2.29,13.79,4.1,24.03,13.42,20.46,32.44-4.21,22.4-7.83,44.92-11.61,67.4-.36,2.15-1.13,2.91-3.33,2.89-9.79-.1-19.59-.12-29.38,0-2.54,.03-2.87-.84-2.44-3.08,4.05-20.88,8.03-41.78,12.03-62.67,1.89-9.88-.66-12.98-10.82-13.02-7.73-.03-15.45,.07-23.18-.07-2.11-.04-3.09,.52-3.51,2.66-4.79,24.28-9.68,48.53-14.43,72.82-.47,2.41-1.18,3.45-3.87,3.39-9.03-.18-18.06-.17-27.09-.02-2.63,.04-3.02-.65-2.52-3.13,4.08-20.21,8.01-40.46,12.01-60.69,4.94-25.02,9.92-50.04,14.79-75.07,.43-2.21,1.17-3.06,3.55-3.03,9.03,.15,18.06,.18,27.09,0,3.03-.06,3.32,.9,2.77,3.54-2,9.67-3.78,19.39-5.66,29.1-.82,4.25-.84,4.25,3.61,4.26,4.79,0,9.58,0,14.36,0Z"/><path class="cls-1" d="M376.76,96.1c4.07,.21,8.85-.27,13.62,.4,10.12,1.42,17.09,7.13,15.31,19.48-.71,4.96-1.53,9.86-3.4,14.55-4.07,10.18-11.96,15.35-22.41,17.18-7.99,1.4-16.06,.47-24.08,.71-3.09,.09-1.77-2.27-1.59-3.48,1.23-8.15,2.64-16.27,4.02-24.4,1.23-7.28,2.59-14.53,3.66-21.83,.31-2.1,1.04-2.72,3.07-2.65,3.69,.14,7.39,.04,11.8,.04Z"/><path class="cls-1" d="M131.2,148.42c-3.26,0-6.53-.04-9.79,.02-1.53,.03-2.35-.06-1.99-2.12,2.76-15.93,5.38-31.89,8.03-47.84,.19-1.16,.07-2.44,1.91-2.38,9.22,.32,18.49-.71,27.68,.65,7.84,1.16,15.47,6.1,14.32,17.5-.56,5.54-1.46,10.99-3.5,16.17-4.8,12.15-14.74,16.76-26.87,17.87-3.23,.3-6.52,.04-9.78,.04,0,.03,0,.06,0,.09Z"/></svg>