<?xml version="1.0" encoding="UTF-8"?><svg id="Layer_5" xmlns="http://www.w3.org/2000/svg" viewBox="0 0 512 512"><defs><style>.cls-1{fill:#fff;}.cls-2{fill:#32383d;}</style></defs><path class="cls-2" d="M.03,297.57c.48-.05,.95-.13,1.43-.13,9.94,0,19.87,0,29.81-.02,1.03,0,1.66,.03,1.65,1.4,0,1.36-.4,1.76-1.72,1.66-1.56-.11-3.11,.18-4.59,.66-2.02,.66-3.01,2.09-3.04,4.24-.03,1.68,.37,3.3,.89,4.88,3.31,10.11,6.62,20.22,9.94,30.34,.08,.23,.16,.46,.35,.98,1.6-4.77,3.12-9.27,4.63-13.77,3.25-9.68,6.52-19.36,9.74-29.05,.35-1.04,.84-1.37,1.94-1.37,1.14,0,1.54,.42,1.88,1.43,4.63,14.12,9.3,28.23,13.96,42.34,.54-.07,.48-.52,.59-.85,3.45-10.24,6.89-20.47,10.34-30.71,.41-1.23,.65-2.49,.77-3.77,.23-2.44-.82-4.01-3.17-4.73-1.6-.5-3.26-.74-4.92-.61-1.37,.11-1.13-.75-1.13-1.53,0-.8-.2-1.55,1.14-1.54,8.54,.06,17.08,.05,25.62,0,1.26,0,1.05,.75,1.03,1.47-.03,.72,.36,1.72-1.05,1.59-.74-.07-1.5,.01-2.25,.06-4.57,.3-7.66,2.62-9.49,6.81-2.6,5.94-4.38,12.17-6.44,18.3-4.29,12.77-8.52,25.55-12.77,38.33h-1.93c-.53-.43-.75-1.03-.95-1.65-4.67-14.12-9.26-28.26-13.81-42.41-.1-.3-.23-.6-.21-.96-.23,.58-.42,1.17-.62,1.76-4.59,13.75-9.16,27.5-13.76,41.25-.24,.71-.39,1.46-.96,2.01h-1.93c-.86-.47-.97-1.38-1.23-2.18-5.29-16.23-10.55-32.48-15.82-48.72-.68-2.09-1.47-4.14-2.42-6.14-1.91-4.01-5.11-5.93-9.48-6.03-.69-.02-1.41,.1-1.99-.43,0-.97,0-1.93,0-2.9Z"/><path class="cls-1" d="M.03,300.47c1.29-.02,2.56,.03,3.85,.18,3.64,.42,6.1,2.39,7.73,5.56,2.02,3.92,3.18,8.16,4.54,12.33,4.84,14.84,9.66,29.69,14.48,44.54,.1,.3,.23,.59,.34,.89-9.94,0-19.88-.02-29.82,.03-.96,0-1.16-.19-1.16-1.16,.03-20.79,.03-41.58,.03-62.37Z"/><path class="cls-2" d="M511.97,349.79c-.87,3.11-2.09,6.01-4.48,8.33-6.44,6.24-16.98,6.87-25.09,1.44q-2.04-1.36-3.1,.84c-.23,.48-.53,.97-.59,1.48-.17,1.48-1.15,1.48-2.27,1.44-.66-.02-.95-.16-.94-.9,.02-6.23,.02-12.46,0-18.69,0-.77,.35-.96,.97-.84,.78,.15,1.96-.59,2.16,.9,.24,1.76,.75,3.45,1.47,5.07,3.12,7.01,11.25,11.05,18.17,9.03,5.68-1.65,7.19-7.48,3.02-11.66-1.65-1.65-3.64-2.82-5.71-3.84-3.75-1.84-7.56-3.55-11.25-5.5-3.55-1.87-6.36-4.55-7.88-8.37-2.14-5.38-.61-10.98,3.96-14.55,5.81-4.53,14.86-4.81,21.28-.51,1.22,.82,1.62,.45,2.07-.59,.21-.49,.5-.97,.59-1.49,.27-1.67,1.55-1.17,2.51-1.14,1.18,.04,.65,1.05,.66,1.62,.04,4.83,.03,9.67,.01,14.5,0,.56,.32,1.52-.78,1.34-.88-.14-2.21,.84-2.54-1.02-.51-2.88-1.55-5.57-3.51-7.82-3.13-3.59-8.62-4.87-12.92-3.03-4.63,1.97-5.37,6.78-1.52,10.02,1.65,1.39,3.58,2.35,5.51,3.29,2.89,1.41,5.74,2.88,8.67,4.19,5.56,2.5,9.95,6.05,11.54,12.25v4.19Z"/><path class="cls-1" d="M32.91,363.97c1.82-5.58,3.62-11.17,5.45-16.74,3.05-9.25,6.12-18.49,9.2-27.72,.16-.49,.18-1.08,.7-1.45,4.98,15.31,9.96,30.62,14.94,45.92h-30.3Z"/><path class="cls-2" d="M430.82,353.17c0-2.95,0-5.91,0-8.86,0-.65-.24-1.58,.92-1.4,.83,.13,1.99-.71,2.29,1.08,.92,5.44,3.5,9.89,8.57,12.51,3.43,1.77,7.12,2.43,10.91,1.41,5.9-1.59,7.39-7.56,3.01-11.8-1.63-1.58-3.58-2.72-5.6-3.72-3.75-1.84-7.58-3.5-11.24-5.5-4.61-2.52-7.99-6.12-8.69-11.63-.65-5.19,1.46-9.2,5.72-11.9,6.59-4.17,13.38-3.9,20.08-.07,1.68,.96,1.68,1.02,2.49-.74,.16-.34,.3-.69,.43-1.04,.4-1.1,1.87-1.73,2.87-1.24,.46,.22,.35,.62,.35,.97,0,5.15,0,10.31,0,15.46,0,.58-.01,1.2-.8,1.02-.86-.19-2.17,.77-2.51-.83-.44-2.05-1.07-4.02-2.08-5.88-2.7-4.96-8.88-7.33-14.09-5.32-2.22,.86-3.95,2.28-4.27,4.78-.29,2.33,.8,4.13,2.62,5.55,1.83,1.43,3.9,2.44,5.97,3.45,3.46,1.7,6.95,3.33,10.37,5.1,4.14,2.14,7.43,5.13,8.69,9.8,1.75,6.46-1.51,13.36-7.98,16.6-7.56,3.79-14.85,2.89-21.69-1.88-1.2-.84-1.62-.5-2.11,.52-.37,.77-.77,1.53-1.06,2.33-.43,1.15-1.69,1.77-2.79,1.32-.65-.27-.39-.82-.4-1.25-.02-2.95-.01-5.91-.01-8.86Z"/><path class="cls-2" d="M317.48,189.49c-9.02-21.85-25.57-35.18-48.73-40.24-2.73-.59-5.52-.66-8.24-1.24h-9.03c-.36,.09-.71,.23-1.07,.26-6.68,.5-13.08,2.11-19.31,4.56-30.66,12.05-48.04,46.62-39.39,78.4,8.66,31.82,37.71,52.17,70.48,49.28,14.81-1.3,27.77-7.07,38.67-17.13,20.67-19.06,27.36-47.9,16.62-73.91Zm-61.45,87.36c-34.41,.04-62.45-27.99-62.44-62.43,0-34.46,28.03-62.44,62.47-62.36,34.49,.08,62.26,27.83,62.36,62.31,.09,34.38-27.92,62.44-62.39,62.48Z"/><path class="cls-2" d="M256.62,322.39c-4.62-6.07-11.17-8.6-18.43-9.67-5.29-.78-10.61-.54-15.93-.56-5.48-.02-10.96,.01-16.44-.02-.95,0-1.45,.11-1.42,1.27,.02,1.15,.18,1.62,1.53,1.66,5.88,.18,7.44,1.73,7.92,7.59,.47,5.68,.16,11.38,.2,17.07,.03,4.03,.13,8.05-.26,12.08-.41,4.24-1.91,5.96-6.08,6.56-4.58,.66-8.57-.9-12.18-3.53-5.47-3.99-9.48-9.44-14.34-14.36,2.68-.65,5.1-1.33,7.25-2.68,4.25-2.66,6.78-6.34,6.7-11.51-.08-5.18-2.69-8.81-7.08-11.26-4.15-2.32-8.73-2.84-13.38-2.86-7.95-.03-15.9,.02-23.85-.04-1.29-.01-1.62,.35-1.6,1.6,.02,1.07,.33,1.38,1.36,1.32,.79-.04,1.6,.13,2.4,.22,3.24,.38,4.76,1.79,5.36,5.01,.17,.89,.28,1.8,.33,2.71,.36,7.09,.12,14.18,.16,21.27,.01,2.36-.07,4.73-.2,7.08-.23,4.03-1.73,6.18-4.71,6.79-1.05,.21-2.13,.38-3.19,.33-1.21-.06-1.49,.32-1.52,1.51-.04,1.33,.5,1.43,1.59,1.42,8.76-.04,17.51-.05,26.27,0,1.23,0,1.62-.27,1.61-1.56-.01-1.19-.42-1.36-1.48-1.37-5.73-.07-7.62-1.98-7.98-7.74-.17-2.74-.19-5.47-.19-8.21,0-1.62,.73-2.16,2.25-1.67,.56,.18,.8,.69,1.13,1.1,4.86,6.08,9.73,12.15,14.56,18.26,.65,.82,1.3,1.2,2.4,1.19,13.59-.04,27.18-.03,40.78-.03,3.44,0,6.85-.28,10.24-.93,10.86-2.08,19.34-8.98,20.58-20.72,.67-6.3-.45-12.2-4.36-17.33Zm-86.43,13.88c-.91,.04-1.2-.24-1.18-1.16,.05-2.95,.02-5.9,.02-8.85,0-2.84,0-5.69,0-8.53,0-.66,.02-1.14,.91-1.11,2.14,.07,4.31-.11,6.43,.14,5.45,.65,8.64,4.66,8.29,10.14-.4,6.13-3.82,9.34-9.96,9.36-1.5,0-3.01-.05-4.51,.02Zm78.1,8.94c-1.95,6.76-6.8,10.69-13.81,11.34-2.19,.2-4.39,.36-6.59,.04-1.73-.25-2.8-1.12-3.24-2.86-.34-1.38-.34-2.77-.34-4.16-.02-10.52,0-21.04-.05-31.55,0-1.13,.3-1.51,1.43-1.42,1.23,.1,2.47,.02,3.7,.02,2.53-.03,5.05,.07,7.52,.64,5.83,1.36,9.64,4.95,11.33,10.66,1.69,5.74,1.69,11.54,.04,17.29Z"/><path class="cls-2" d="M420.95,347.51c-.79-.05-1.77-.36-1.91,1.02-.07,.73-.41,1.44-.6,2.16-.85,3.36-3,5.16-6.43,5.6-4.12,.54-8.25,.64-12.37,.24-2.96-.29-4.52-1.89-5.04-4.97-.71-4.27-.35-8.57-.46-12.86-.02-.71,.24-.93,.93-.92,2.31,.05,4.62-.01,6.91,.41,2.78,.52,3.94,1.76,4.31,4.6,.1,.74,.26,1.51,.19,2.24-.13,1.25,.37,1.5,1.54,1.5,1.21,0,1.38-.47,1.38-1.52-.04-6.39-.04-12.78,0-19.18,0-1.07-.21-1.49-1.4-1.5-1.21-.01-1.62,.31-1.52,1.52,.07,.79-.11,1.6-.21,2.4-.32,2.51-1.26,3.6-3.69,4.25-2.52,.67-5.11,.52-7.69,.58-.72,.02-.74-.41-.74-.93,0-4.83,.01-9.67,0-14.5,0-.71,.15-1.07,.97-1.06,4.35,.06,8.71-.15,13.04,.33,4.51,.5,6.19,1.96,7.44,6.29,.18,.62,.45,1.23,.51,1.85,.14,1.38,1.14,1.01,1.93,1.02,1.16,0,.69-.89,.65-1.41-.26-3.64-.64-7.27-.81-10.92-.06-1.33-.44-1.66-1.75-1.66-13.43,.05-26.86,.04-40.3,0-1.13,0-1.63,.16-1.57,1.46,.05,1.05,.19,1.55,1.39,1.46,.95-.06,1.93,.12,2.88,.26,2.62,.39,4.17,1.79,4.77,4.34,.2,.83,.32,1.69,.38,2.54,.51,7.19,.14,14.39,.25,21.58,.04,2.69-.03,5.37-.28,8.05-.39,4.25-1.91,6.01-6.11,6.52-3,.37-5.69-.87-8.18-2.37-6.47-3.91-10.71-10.14-16.16-15.52,2.81-.61,5.3-1.39,7.54-2.81,9.03-5.7,8.66-17.58-.72-22.67-4.13-2.24-8.64-2.78-13.23-2.8-7.9-.04-15.8-.02-23.69,0-.83,0-1.82-.38-1.82,1.21,0,1.32,.33,1.65,1.66,1.7,5.79,.23,7.6,2.12,7.83,7.89,0,.16,.02,.32,.02,.48,.12,8.92,.18,17.83-.02,26.75-.14,6.24-2.01,8.1-8.27,8.26-1.32,.03-1.15,.7-1.17,1.51-.03,.88-.03,1.45,1.22,1.44,8.97-.06,17.94-.06,26.92,0,1.12,0,1.33-.37,1.3-1.38-.03-.93,.05-1.71-1.29-1.55-.68,.08-1.4-.02-2.08-.12-4.1-.65-5.58-2.31-6-6.46-.31-3.11-.28-6.22-.28-9.34,0-1.69,.59-2.14,2.2-1.72,.59,.16,.81,.67,1.13,1.07,4.93,6.16,9.86,12.33,14.78,18.49,.44,.55,.81,1,1.67,1,19.56-.03,39.11-.03,58.67,0,.91,0,1.14-.28,1.19-1.17,.19-3.75,.48-7.5,.68-11.25,.03-.5,.68-1.4-.5-1.47Zm-78.67-11.24c-.9,.04-1.19-.22-1.17-1.15,.06-2.9,.02-5.8,.02-8.7,0-2.84,.04-5.69-.02-8.53-.02-.95,.18-1.35,1.23-1.29,1.61,.09,3.22,0,4.83,.03,6.16,.14,9.8,4.06,9.54,10.25-.25,5.98-3.75,9.34-9.75,9.36-1.56,0-3.12-.05-4.67,.02Z"/><path class="cls-2" d="M312.04,302.84c-4.17-3.54-9.22-5.03-14.57-5.23-10.84-.42-21.69-.09-32.54-.19-.89,0-1.18,.22-1.21,1.16-.04,1.32,.13,2.2,1.76,1.9,.36-.07,.75,0,1.13,.02,5.13,.33,7.19,2.12,8.19,7.14,.35,1.74,.54,3.5,.54,5.27,.01,5.48,0,10.95,0,19.14-.14,4.05,.36,10.82-.3,17.57-.58,5.95-2.78,8.19-8.67,8.65-.37,.03-.76,.14-1.12,.09-1.56-.24-1.47,.7-1.54,1.81-.09,1.42,.75,1.22,1.6,1.22,10.26,0,20.52-.04,30.77,.03,1.37,0,1.51-.49,1.53-1.63,.01-1.1-.26-1.55-1.4-1.44-.68,.06-1.39-.09-2.09-.14-4.39-.32-6.73-2.39-7.51-6.75-.99-5.54-.56-11.13-.67-16.71-.02-1,.62-.79,1.18-.79,2.95-.02,5.91,.04,8.86-.07,4.21-.16,8.29-.96,12.12-2.83,11.33-5.53,13.4-20.18,3.94-28.22Zm-6.72,18.8c-1.64,3.82-4.55,5.99-8.64,6.57-3.26,.46-6.54,.12-9.81,.25-1.05,.04-.91-.61-.91-1.25,0-3.86,0-7.72,0-11.59,0-3.81,.06-7.62-.03-11.43-.03-1.25,.35-1.53,1.53-1.47,2.94,.16,5.9-.21,8.84,.22,5.77,.85,9.41,4.66,9.98,10.47,.27,2.79,.18,5.57-.95,8.21Z"/><path class="cls-2" d="M140.6,320.66c-10.87-12.79-32.3-13.92-44.49-2.35-8.96,8.51-11.08,20.08-5.12,30.4,5.75,9.94,14.99,14.08,25.36,14.61,8.49-.15,15.4-2.48,21.33-7.51,10.83-9.17,12.1-24.35,2.92-35.15Zm-8.24,29.2c-3.49,6.66-9.56,9.14-16.86,8.56-7.2-.57-11.92-4.6-14.58-11.16-1.37-3.37-1.97-6.89-1.95-12.03,.1-4.55,1.38-10.25,5.51-14.89,7.44-8.36,21.74-7.14,27.41,2.51,5.17,8.79,5.18,18.03,.47,27.01Z"/><path class="cls-2" d="M283.54,247.73c-2.4-7.11-4.76-14.1-7.11-21.08-4.1-12.17-8.17-24.34-12.3-36.5-.45-1.32-.43-1.91,1.22-1.84,1.38,.06,2.78-.18,4.17-.31,1.58-.15,2.53-1.09,2.47-2.41-.06-1.36-1.03-2.19-2.66-2.11-3.38,.16-6.75,.45-10.13,.58-5.64,.22-11.28-.05-16.9-.51-.7-.06-1.39-.08-2.09-.09-1.36-.02-2.08,.74-2.25,2.02-.17,1.29,.6,2.3,1.96,2.47,1.54,.19,3.1,.33,4.65,.38,.89,.03,1.3,.36,1.6,1.2,2.61,7.25,5.26,14.48,7.91,21.71,.21,.58,.24,1.07,.03,1.68-3.92,11.71-7.81,23.43-11.75,35.26-.7-.76-.78-1.68-1.05-2.48-6.26-18.55-12.48-37.12-18.75-55.67-.45-1.33-.27-1.76,1.2-1.72,1.44,.04,2.89-.18,4.33-.33,1.55-.16,2.5-1.18,2.37-2.49-.13-1.31-1.05-2.1-2.6-2.02-5.31,.29-10.61,.74-15.93,.65-.63-.01-1.26,0-1.96,0,16.54-27.02,57.12-34.48,83.09-10.67-1.04,.2-2.03,.29-2.95,.57-5.17,1.58-7.83,7.2-6.17,12.89,.76,2.6,2.09,4.92,3.51,7.19,2.33,3.74,4.38,7.59,5.36,11.96,1.22,5.42,.45,10.7-1.08,15.87-2.48,8.42-5.17,16.77-7.77,25.15-.06,.19-.22,.35-.41,.65Z"/><path class="cls-2" d="M256.97,219.18c2.08,5.72,3.99,10.99,5.91,16.24,3.71,10.14,7.41,20.29,11.16,30.42,.39,1.04-.24,.99-.82,1.18-6.86,2.25-13.88,3.15-21.09,2.62-3.59-.27-7.12-.87-10.61-1.78-.73-.19-1.23-.33-.87-1.37,5.41-15.6,10.77-31.22,16.31-47.32Z"/><path class="cls-2" d="M205.43,191.81c8.88,24.33,17.59,48.19,26.31,72.06-7.15-1.18-20.89-14.92-26.01-26.31-6.75-15.01-6.77-30.13-.3-45.75Z"/><path class="cls-2" d="M304.71,188.42c13.57,24.27,6.1,58.04-20.59,73.6-.21-.7,.21-1.25,.41-1.84,5.89-17.03,11.83-34.04,17.7-51.07,2.21-6.41,2.51-9.39,2.47-20.69Z"/></svg>