<?xml version="1.0" standalone="no"?>
<!DOCTYPE svg PUBLIC "-//W3C//DTD SVG 20010904//EN"
 "http://www.w3.org/TR/2001/REC-SVG-20010904/DTD/svg10.dtd">
<svg version="1.0" xmlns="http://www.w3.org/2000/svg"
 width="1024.000000pt" height="1024.000000pt" viewBox="0 0 1024.000000 1024.000000"
 preserveAspectRatio="xMidYMid meet">
<metadata>
Created by potrace 1.14, written by Peter Selinger 2001-2017
</metadata>
<g transform="translate(0.000000,1024.000000) scale(0.100000,-0.100000)"
fill="#000000" stroke="none">
<path d="M12 5903 l3 -3837 1502 -1 c993 0 1504 3 1506 10 2 6 3 293 3 639
l-1 630 -658 0 -657 0 2 2555 3 2556 653 0 c358 0 653 2 654 5 0 3 2 292 3
643 l2 637 -1509 0 -1508 0 2 -3837z"/>
<path d="M5389 9688 c-7 -29 -12 -55 -11 -58 0 -3 -3 -9 -8 -15 -4 -5 -11 -29
-15 -52 -4 -24 -11 -43 -16 -43 -6 0 -7 -5 -4 -10 4 -6 3 -19 -1 -28 -7 -18
-10 -25 -18 -57 -6 -25 -31 -109 -45 -153 -5 -18 -10 -35 -10 -37 -1 -3 -1 -6
-2 -7 -4 -13 -10 -45 -11 -55 -1 -7 -5 -13 -10 -13 -5 0 -7 -4 -3 -9 3 -5 -1
-29 -9 -53 -14 -40 -65 -220 -70 -243 -1 -5 -10 -37 -20 -70 -10 -33 -19 -64
-20 -70 -2 -5 -9 -30 -16 -55 -7 -25 -14 -52 -15 -60 -1 -8 -5 -22 -8 -30 -7
-16 -144 -505 -157 -556 -4 -18 -10 -36 -13 -41 -3 -5 -8 -20 -11 -34 -2 -13
-23 -89 -46 -169 -23 -80 -43 -152 -45 -160 -7 -27 -63 -224 -74 -259 -6 -19
-9 -37 -6 -39 3 -3 1 -10 -4 -16 -6 -7 -12 -23 -15 -36 -3 -14 -13 -50 -22
-80 -14 -48 -52 -188 -59 -215 -1 -5 -5 -17 -8 -25 -3 -8 -13 -40 -21 -70 -8
-30 -24 -89 -36 -130 -12 -41 -24 -86 -26 -99 -3 -14 -7 -28 -10 -33 -3 -4 -7
-16 -9 -25 -3 -18 -83 -307 -90 -331 -3 -7 -4 -13 -4 -15 0 -1 -4 -14 -10 -30
-6 -15 -13 -38 -15 -50 -3 -12 -17 -62 -31 -112 -27 -93 -32 -113 -39 -142 -2
-10 -9 -29 -14 -43 -5 -14 -10 -28 -11 -32 0 -5 -1 -9 -2 -10 0 -2 -2 -12 -4
-23 -2 -11 -11 -44 -20 -72 -9 -29 -18 -60 -20 -70 -2 -10 -4 -18 -5 -18 -1 0
-3 -7 -5 -15 -2 -8 -26 -96 -55 -195 -28 -99 -53 -187 -55 -195 -1 -8 -9 -35
-16 -60 -7 -25 -14 -49 -15 -55 -27 -94 -125 -438 -133 -462 -5 -18 -8 -33 -6
-33 2 0 -3 -16 -11 -35 -8 -19 -14 -36 -13 -37 1 -2 -5 -23 -12 -48 -7 -25
-13 -47 -14 -50 -2 -14 -28 -107 -32 -120 -7 -18 -9 -26 -16 -60 -3 -14 -10
-38 -15 -55 -5 -16 -15 -50 -22 -75 -7 -25 -16 -56 -21 -70 -5 -14 -11 -35
-14 -47 -8 -37 -12 -53 -45 -163 -17 -58 -33 -115 -36 -127 -2 -12 -9 -34 -14
-48 -5 -14 -7 -25 -5 -25 3 0 -3 -12 -12 -27 -10 -15 -13 -24 -6 -20 6 4 3
-15 -8 -46 -10 -28 -20 -61 -22 -72 -2 -11 -13 -51 -25 -90 -12 -38 -23 -79
-25 -90 -2 -11 -6 -27 -9 -35 -12 -34 -40 -134 -44 -158 -3 -14 -7 -29 -10
-34 -3 -4 -7 -16 -9 -25 -5 -20 -46 -171 -68 -248 -8 -27 -20 -62 -26 -77 -6
-16 -9 -28 -6 -28 2 0 -2 -18 -10 -40 -8 -22 -14 -42 -15 -45 0 -5 -1 -9 -5
-22 -1 -5 -5 -21 -9 -38 -4 -16 -14 -47 -22 -68 -8 -20 -12 -37 -9 -37 2 0 0
-12 -6 -27 -6 -16 -13 -39 -15 -53 -3 -14 -9 -36 -14 -50 -11 -31 -70 -247
-70 -257 0 -6 1533 -10 1586 -4 5 0 18 29 28 64 10 34 24 85 33 112 8 28 17
59 19 69 2 10 15 60 30 110 14 50 28 100 31 111 7 33 11 50 13 55 1 3 2 8 1
13 0 4 3 7 8 7 5 0 8 6 7 13 0 6 14 65 33 131 18 65 34 124 36 130 1 6 5 18 8
26 12 32 69 238 82 300 2 8 4 16 5 18 2 1 3 5 4 10 2 4 8 27 15 52 7 25 15 53
16 62 2 9 8 25 14 36 6 11 8 22 5 25 -3 3 -2 12 2 19 5 7 9 16 10 21 1 4 2 8
3 10 2 1 5 13 8 27 6 31 8 41 16 60 6 17 96 336 102 360 1 8 11 42 21 75 10
33 19 65 20 70 1 6 19 69 39 140 20 72 38 138 41 147 15 59 64 230 71 248 3 8
7 22 8 30 1 8 8 35 15 60 7 25 15 50 16 55 2 6 8 26 13 45 5 19 14 50 19 68 6
17 8 32 5 32 -3 0 -1 6 4 13 5 6 27 77 49 157 21 80 42 147 46 148 5 2 6 7 4
11 -3 4 7 47 21 96 14 50 26 95 28 100 1 6 4 17 8 25 3 8 19 67 37 130 17 63
37 138 45 165 11 39 74 261 100 355 2 8 15 53 28 100 13 47 25 90 27 95 1 6 4
15 6 20 12 38 38 133 39 145 0 9 3 20 7 25 5 10 19 63 17 67 0 2 5 17 11 33 7
17 14 39 16 50 2 11 12 49 23 85 34 118 45 157 55 195 3 11 12 45 21 75 17 55
52 180 60 213 3 9 7 25 10 35 14 56 67 239 72 252 3 8 7 20 8 25 16 68 50 194
56 206 5 9 11 31 14 49 3 18 10 41 16 51 5 11 7 19 3 19 -3 0 -1 7 6 15 7 8
10 15 7 15 -3 0 -1 15 4 33 6 17 12 39 14 47 2 8 4 15 5 15 1 0 3 7 5 15 7 32
46 174 50 180 2 4 6 17 9 31 3 13 12 47 20 74 45 154 64 225 59 225 -3 0 0 7
7 15 7 8 9 15 6 15 -4 0 -2 8 3 18 6 11 12 30 14 43 3 13 12 47 20 74 12 39
77 268 112 395 14 51 45 160 54 188 5 18 10 33 10 35 0 1 2 9 4 17 13 39 78
277 82 295 2 11 13 49 24 84 12 35 21 70 21 77 0 12 -129 14 -799 14 l-799 0
-13 -52z"/>
<path d="M7225 9106 c0 -349 3 -637 6 -641 4 -3 300 -6 657 -6 l651 1 0 -113
c0 -61 1 -116 2 -122 1 -5 1 -14 0 -19 -2 -11 -2 -287 0 -301 1 -5 1 -14 0
-19 -2 -11 -2 -287 0 -301 1 -5 1 -14 0 -19 -2 -11 -2 -287 0 -301 1 -5 1 -14
0 -19 -3 -12 -3 -207 0 -221 1 -5 0 -14 -1 -20 -2 -12 -2 -136 1 -150 1 -5 0
-14 -1 -20 -2 -12 -2 -136 1 -150 1 -5 0 -14 -1 -20 -2 -11 -2 -197 1 -205 1
-3 1 -9 0 -14 -3 -12 -2 -227 0 -241 1 -5 0 -14 -1 -20 -6 -27 -4 -117 3 -122
4 -2 5 -9 1 -14 -5 -9 -8 -129 -3 -154 1 -5 1 -14 0 -19 -3 -12 -3 -197 0
-211 1 -5 1 -14 0 -19 -2 -11 -2 -287 0 -301 1 -5 1 -14 0 -19 -2 -11 -2 -287
0 -301 1 -5 1 -14 0 -19 -2 -11 -2 -287 0 -301 1 -5 1 -14 0 -19 -3 -12 -3
-207 0 -221 1 -5 0 -14 -1 -20 -2 -12 -2 -136 1 -150 1 -5 0 -14 -1 -20 -2
-12 -2 -136 1 -150 1 -5 0 -14 -1 -20 -2 -11 -2 -197 1 -205 1 -3 1 -9 0 -14
-3 -12 -2 -227 0 -241 1 -5 0 -14 -1 -20 -6 -27 -4 -117 3 -122 4 -2 4 -9 1
-15 -4 -6 -6 -41 -5 -78 l2 -67 -641 1 c-352 1 -648 -2 -658 -5 -16 -6 -17
-51 -17 -637 -1 -428 3 -632 10 -635 9 -2 2960 -1 2993 2 9 1 12 775 12 3836
l0 3835 -1508 0 -1508 0 1 -634z"/>
<path d="M538 1644 c-3 -2 -36 -7 -74 -9 -38 -2 -76 -6 -84 -8 -65 -16 -107
-31 -120 -41 -8 -6 -28 -18 -44 -26 -64 -33 -156 -159 -175 -242 -1 -4 -8 -29
-16 -54 -10 -34 -13 -92 -11 -213 3 -173 5 -185 33 -260 42 -115 122 -202 229
-252 80 -37 99 -41 219 -45 100 -3 201 12 248 38 12 7 25 11 29 10 3 -1 12 5
18 13 7 8 18 15 24 15 10 0 90 73 111 102 22 30 44 75 54 114 13 49 22 164 13
165 -4 1 -77 2 -163 3 l-155 1 -2 -29 c-12 -152 -173 -212 -267 -99 -15 18
-24 33 -21 33 4 0 1 10 -5 22 -19 35 -26 199 -15 302 10 89 46 145 107 169 88
33 181 -26 194 -125 4 -26 10 -48 13 -49 19 -3 299 -4 308 -1 10 3 11 79 1
132 -34 172 -186 301 -386 325 -23 3 -46 7 -51 10 -4 2 -9 2 -12 -1z"/>
<path d="M1597 1644 c-3 -3 -25 -8 -49 -10 -100 -12 -205 -62 -277 -132 -54
-53 -78 -92 -109 -174 -25 -68 -27 -85 -29 -256 -1 -140 2 -191 13 -218 8 -18
14 -35 13 -36 -6 -23 55 -131 101 -179 74 -76 119 -100 244 -134 135 -36 417
6 458 69 4 6 8 7 8 2 0 -6 9 0 20 12 11 11 26 24 33 29 7 4 29 28 48 53 18 25
36 47 39 50 3 3 6 10 7 15 1 6 11 35 22 65 11 30 23 75 27 100 9 55 10 258 1
320 -11 80 -60 210 -79 210 -4 0 -8 6 -8 14 0 38 -168 157 -243 171 -9 2 -22
7 -27 10 -6 3 -51 8 -100 10 -50 2 -94 6 -99 9 -4 3 -11 3 -14 0z m141 -301
c68 -51 90 -123 86 -288 -1 -60 -4 -121 -7 -135 -16 -91 -77 -152 -157 -155
-93 -5 -159 56 -175 160 -9 57 -9 208 -1 275 7 57 52 128 95 151 43 23 123 19
159 -8z"/>
<path d="M2359 1610 c-1 -8 -2 -259 -3 -558 l-1 -543 291 2 c243 1 303 4 357
18 126 34 215 105 277 223 19 34 33 63 31 63 -1 0 0 7 3 15 17 52 32 169 30
250 -2 115 -9 165 -40 260 -3 8 -4 16 -2 16 2 1 -4 10 -12 20 -9 11 -21 30
-28 44 -42 83 -156 161 -273 186 -108 23 -629 26 -630 4z m516 -269 c83 -33
122 -128 120 -291 -2 -142 -38 -224 -113 -256 -37 -17 -181 -29 -183 -16 -1 9
-1 542 0 565 1 17 9 18 74 14 39 -3 86 -10 102 -16z"/>
<path d="M3525 1620 c-1 -3 -2 -254 -2 -558 l-1 -552 396 2 395 3 -1 105 c-1
58 -1 116 -2 130 l0 25 -225 -1 -225 -2 -1 27 c-2 45 2 134 6 140 2 4 94 6
205 6 113 0 204 3 207 8 6 11 5 215 -1 225 -2 4 -97 7 -210 7 -179 -1 -206 1
-207 15 -3 100 -3 120 5 120 5 0 3 6 -3 14 -17 20 -5 24 80 23 42 0 81 3 88 7
6 4 11 4 11 -1 0 -7 99 -8 250 -4 l25 1 -3 132 -3 133 -390 0 c-215 0 -392 -2
-394 -5z"/>
<path d="M5225 1620 l-30 -5 0 -550 0 -550 151 -3 151 -3 1 298 c0 343 0 323
10 323 6 0 35 -53 37 -70 1 -3 20 -45 44 -95 23 -49 59 -125 79 -168 20 -42
41 -76 46 -74 6 3 19 0 29 -5 10 -5 24 -5 36 2 14 7 22 7 26 0 4 -6 12 -7 18
-3 7 4 22 6 35 4 19 -2 28 9 61 81 21 46 53 115 71 153 18 39 43 94 56 123 13
28 27 52 32 52 4 0 8 -138 8 -307 l0 -308 152 -3 152 -3 1 423 c0 233 1 481 1
551 0 70 -2 130 -5 133 -3 3 -82 6 -176 7 l-170 2 -32 -65 c-17 -36 -44 -91
-61 -122 -16 -32 -26 -58 -23 -58 4 0 -2 -12 -12 -27 -11 -16 -34 -62 -53
-103 -18 -41 -37 -76 -42 -78 -4 -2 -8 -13 -8 -24 0 -29 -22 -17 -42 23 -24
45 -122 253 -123 259 -1 4 -86 180 -91 188 -4 6 -297 7 -329 2z"/>
<path d="M6637 1622 c-17 -4 -18 -17 -18 -252 0 -27 0 -232 0 -455 l1 -405
393 0 394 0 1 130 2 130 -43 1 c-23 0 -125 1 -227 2 l-184 2 -1 75 c-1 41 0
80 2 85 2 6 82 10 212 10 l210 0 -1 117 c0 65 -3 118 -7 119 -3 0 -96 2 -206
3 -110 2 -203 4 -206 5 -3 0 -5 38 -4 84 l0 82 101 1 c55 0 108 3 118 7 9 4
15 3 12 -1 -5 -8 61 -8 70 1 3 3 18 2 32 -1 24 -6 54 -7 103 -3 14 1 16 19 17
131 l0 130 -31 1 c-127 2 -727 3 -740 1z"/>
<path d="M8153 1617 c-4 -6 -7 -950 -4 -1084 1 -23 2 -23 169 -23 l167 0 -1
185 c0 130 3 184 10 182 6 -2 20 -1 32 4 36 13 35 14 165 -259 l53 -112 188 0
187 0 -36 68 c-19 37 -65 123 -101 192 -36 69 -69 130 -74 137 -6 7 2 19 24
34 76 52 141 141 154 212 14 78 6 204 -15 232 -5 5 -11 21 -14 35 -4 14 -24
43 -44 65 -38 40 -113 101 -113 91 0 -3 -20 3 -45 14 -24 10 -71 22 -104 26
-86 9 -592 11 -598 1z m503 -246 c21 -2 72 -56 81 -86 20 -65 -3 -129 -58
-157 -34 -18 -69 -22 -160 -19 l-36 1 2 133 c1 72 3 132 4 133 1 1 149 -3 167
-5z"/>
<path d="M9264 1621 c-2 -3 -4 -164 -4 -358 1 -194 -1 -357 -4 -362 -3 -4 -3
-11 0 -14 4 -3 8 -29 10 -57 2 -29 16 -77 30 -107 71 -150 233 -231 458 -231
88 0 244 29 256 47 3 5 16 12 29 16 14 4 36 18 50 31 14 13 28 24 31 24 16 0
85 108 100 158 17 51 19 100 19 457 l1 400 -165 -1 c-91 -1 -168 -3 -170 -6
-3 -3 -6 -131 -5 -210 0 -10 1 -47 1 -83 0 -36 0 -71 0 -77 0 -7 0 -60 0 -118
-1 -58 0 -112 0 -120 2 -77 -11 -151 -31 -179 -40 -57 -124 -77 -189 -43 -52
26 -73 62 -77 129 -2 32 -4 60 -5 63 -1 3 0 10 1 15 2 12 2 365 -1 380 -1 6 0
15 1 20 5 22 2 114 -4 123 -3 6 -2 13 3 16 5 3 8 14 6 24 -2 9 -6 28 -9 42
l-5 25 -161 0 c-89 0 -164 -2 -166 -4z"/>
<path d="M4492 1105 c-8 -13 -9 -257 -1 -275 5 -12 24 -15 82 -14 41 1 79 4
86 8 6 4 11 3 11 -1 0 -9 155 -8 170 2 5 3 10 2 10 -2 0 -5 11 -9 25 -9 14 0
25 5 25 10 0 7 3 7 10 0 5 -5 27 -8 48 -6 l38 4 1 144 0 144 -31 1 c-224 5
-469 2 -474 -6z"/>
<path d="M7726 838 c-47 -9 -96 -40 -123 -78 -32 -46 -23 -163 15 -208 28 -32
101 -62 151 -62 80 0 166 62 178 130 20 103 -28 186 -121 211 -22 6 -43 12
-46 13 -3 2 -27 -1 -54 -6z"/>
</g>
</svg>
